<?xml version="1.0" encoding="UTF-8" standalone="no"?>
<!-- Created with Inkscape (http://www.inkscape.org/) -->

<svg
   version="1.1"
   id="svg198"
   width="1199.766"
   height="1353.2013"
   viewBox="0 0 1199.766 1353.2013"
   sodipodi:docname="ff-a.svg"
   inkscape:version="1.2.2 (732a01da63, 2022-12-09, custom)"
   xmlns:inkscape="http://www.inkscape.org/namespaces/inkscape"
   xmlns:sodipodi="http://sodipodi.sourceforge.net/DTD/sodipodi-0.dtd"
   xmlns="http://www.w3.org/2000/svg"
   xmlns:svg="http://www.w3.org/2000/svg">
  <defs
     id="defs202" />
  <sodipodi:namedview
     id="namedview200"
     pagecolor="#ffffff"
     bordercolor="#000000"
     borderopacity="0.25"
     inkscape:showpageshadow="2"
     inkscape:pageopacity="0.0"
     inkscape:pagecheckerboard="0"
     inkscape:deskcolor="#d1d1d1"
     showgrid="false"
     inkscape:zoom="0.58947218"
     inkscape:cx="595.44795"
     inkscape:cy="665.84991"
     inkscape:window-width="1846"
     inkscape:window-height="1016"
     inkscape:window-x="0"
     inkscape:window-y="0"
     inkscape:window-maximized="1"
     inkscape:current-layer="svg198" />
  <g
     inkscape:groupmode="layer"
     id="layer1"
     inkscape:label="Layer 1">
    <path
       style="fill:#000000;stroke-width:1.06667"
       d="m 793.43183,1376.2244 c -39.38945,-3.0626 -69.43752,-12.8214 -98.66667,-32.0443 -14.00181,-9.2086 -24.03532,-17.5623 -38.48789,-32.0444 -38.3868,-38.4653 -62.12311,-86.5718 -71.00922,-143.9147 -1.51485,-9.7753 -1.90449,-18.9822 -1.91859,-45.3333 -0.0202,-37.7276 -1.35801,-29.5415 13.17392,-80.6103 8.56204,-30.0892 15.17923,-48.05682 22.16689,-60.18974 7.39893,-12.84701 23.35745,-36.77449 34.39667,-51.57278 5.40464,-7.24503 10.06537,-13.79496 10.35717,-14.55541 1.37886,-3.59323 -35.6987,-15.76316 -64.83777,-21.28164 -46.94554,-8.89076 -91.27741,-20.90044 -134.77451,-36.51097 -33.04728,-11.86022 -47.68964,-20.08074 -72.38375,-40.6377 -24.3813,-20.29656 -25.99112,-21.57483 -27.17087,-21.57483 -0.61886,0 -7.07136,2.81039 -14.33888,6.2453 -8.13358,3.84425 -16.05086,6.77309 -20.59342,7.61811 -4.05886,0.75504 -10.73975,2.46997 -14.84642,3.81097 -6.51468,2.1273 -10.52659,2.52586 -31.46666,3.12598 -32.01031,0.91739 -31.12327,0.60343 -47.75065,16.90043 -8.91751,8.74032 -13.93333,14.56003 -15.75123,18.27568 -5.7829,11.81983 -12.41932,46.20998 -12.56074,65.09019 -0.0918,12.25598 1.98133,19.37739 9.56536,32.85796 8.03294,14.27851 16.75484,25.56168 30.18374,39.04749 12.21143,12.26316 15.07236,16.84986 26.20228,42.00796 2.90869,6.5748 6.23138,12.4084 7.74622,13.6 4.13195,3.2502 8.33623,2.6932 12.42926,-1.6467 6.43668,-6.8249 12.06018,-4.0237 10.98963,5.4741 -1.28068,11.3622 -7.44911,14.4571 -30.12054,15.1125 -8.8,0.2543 -16.83503,0.9007 -17.85563,1.4362 -6.4064,3.3618 -7.33366,19.2577 -1.99257,34.1585 1.82318,5.0863 3.31487,9.7497 3.31487,10.3629 0,0.6131 -1.36961,2.6916 -3.04358,4.6187 -6.58823,7.5844 -7.90634,13.7898 -6.40134,30.1362 1.46615,15.9242 2.32344,17.622 11.99613,23.7584 6.77744,4.2995 8.00985,5.5318 8.05828,8.0577 0.0352,1.8375 -0.99718,4.0362 -2.69058,5.7295 -2.3213,2.3214 -3.41667,2.658 -7.05789,2.1697 -6.56325,-0.8803 -22.73175,-9.2097 -32.86102,-16.9287 -15.54604,-11.8469 -27.87305,-18.0436 -44.06748,-22.1525 -10.6907,-2.7125 -20.90168,-1.2158 -32.73252,4.7979 -6.83686,3.4752 -30.93334,28.8075 -30.93334,32.5197 0,0.5093 2.17096,2.1982 4.82436,3.7531 6.02771,3.5325 6.91045,5.1855 6.90302,12.926 -0.01,9.614 -1.4756,13.4975 -5.89181,15.6034 -4.73001,2.2556 -11.02811,2.3133 -14.14584,0.1295 -5.39784,-3.7808 -9.33249,-17.9222 -10.51626,-37.7961 -0.54537,-9.1562 -0.16921,-12.1905 3.90081,-31.4667 2.47742,-11.7333 4.43691,-23.7115 4.35442,-26.6181 -0.35149,-12.3849 -7.85225,-31.0948 -14.74293,-36.7746 -5.55212,-4.5766 -9.5113,-4.4307 -11.5402,0.4251 -0.85006,2.0345 -1.54557,4.9022 -1.54557,6.3726 0,5.6133 -13.65661,8.3545 -18.06238,3.6254 -3.29641,-3.5382 -5.80555,-12.3627 -5.75729,-20.2477 0.0347,-5.6691 0.72366,-8.5453 3.44933,-14.4 6.55748,-14.0854 9.74128,-18.3615 17.53518,-23.551 19.27849,-12.8364 34.52434,-32.445 39.02915,-50.19767 1.14918,-4.52874 3.06845,-14.00516 4.26504,-21.05872 3.01985,-17.80118 6.9001,-30.96341 19.74162,-66.96581 18.65486,-52.30063 30.02099,-86.96032 34.70825,-105.8388 5.03636,-20.28453 6.80081,-24.40325 13.19242,-30.79486 5.75786,-5.75786 12.7252,-9.09606 21.76707,-10.42905 10.14518,-1.49565 14.01389,-3.73874 28.53161,-16.54283 7.04,-6.20901 18.32,-15.55949 25.06667,-20.77882 6.74667,-5.21933 13.69988,-10.60162 15.45158,-11.96064 l 3.18491,-2.47092 -4.43102,-5.86885 c -19.94,-26.41034 -30.72164,-56.45355 -38.23141,-106.53238 -9.52812,-63.53816 -9.98883,-65.22923 -25.11671,-92.19239 -5.92476,-10.56 -14.42437,-26.16 -18.88801,-34.66667 -13.62756,-25.97096 -33.45455,-49.33963 -40.18711,-47.36571 -2.87437,0.84273 -10.03011,5.39576 -13.39734,8.52441 -5.56944,5.17482 -16.14411,7.09089 -24.80809,4.49511 -7.85314,-2.35287 -22.11013,-18.00031 -22.11013,-24.26649 0,-1.60019 2.07284,-4.29142 6.08986,-7.90661 3.34942,-3.01439 7.97685,-7.19722 10.28317,-9.29518 l 4.19331,-3.81448 -1.31017,-8.96029 c -2.51896,-17.22725 -9.91431,-35.70404 -19.91605,-49.75891 -4.76117,-6.69059 -20.44887,-20.09308 -40.00475,-34.1773 -12.74397,-9.17827 -13.96115,-9.54703 -20.43163,-6.19002 -7.14262,3.70572 -11.48326,3.54629 -16.19996,-0.59502 -3.11987,-2.73929 -3.77045,-4.03678 -3.77045,-7.51964 0,-5.76349 2.09886,-9.35113 9.14428,-15.63061 7.79195,-6.94486 17.88679,-11.94634 24.05328,-11.91719 2.56801,0.0122 9.46911,1.68785 15.33577,3.7238 7.33873,2.54681 12.58023,3.70469 16.8,3.71126 7.05864,0.011 8.05531,-0.71094 14.21944,-10.29949 9.99546,-15.54835 16.56361,-34.70761 18.04056,-52.6243 1.39094,-16.87324 -2.98502,-41.23622 -9.38789,-52.26667 -5.19266,-8.94558 -17.92979,-20.98361 -29.02723,-27.43403 -12.16014,-7.06812 -12.24488,-7.14742 -12.24488,-11.459524 0,-4.179263 3.83525,-9.343645 8.87392,-11.949242 4.22126,-2.182899 15.41548,-1.420191 25.51122,1.738181 15.27494,4.778642 39.30485,27.307345 56.35881,52.837945 3.13506,4.69334 7.67586,10.69334 10.09067,13.33334 2.4148,2.64 5.05204,6.45394 5.86052,8.47542 1.80578,4.5151 6.80948,10.34482 10.52987,12.26813 5.53629,2.86207 10.5264,2.34192 22.24166,-2.31841 l 6.66667,-2.652 v -7.74685 c 0,-9.71834 -2.48656,-24.1915 -5.90655,-34.3795 -3.20354,-9.54317 -3.73098,-23.12817 -0.93954,-24.19934 4.51076,-1.73095 8.00567,-0.61068 12.6812,4.06485 10.71411,10.71411 20.55631,39.66545 22.51229,66.22103 0.6195,8.41073 0.29491,11.48924 -2.62015,24.85029 -1.82999,8.38766 -3.32725,16.56087 -3.32725,18.16267 0,4.17258 2.669,7.40682 7.1285,8.63814 5.1386,1.41884 12.75454,-1.78724 17.97685,-7.56772 4.32851,-4.79113 4.86044,-5.98089 7.454,-16.67234 1.78595,-7.36227 2.04151,-7.77131 4.66505,-7.46667 3.44718,0.40028 8.97944,8.27745 11.29899,16.08822 1.9037,6.41046 2.08553,17.61441 0.41409,25.51491 -2.68859,12.70828 -9.22659,23.25885 -28.51702,46.01874 -16.4739,19.43681 -23.85871,38.49732 -23.76572,61.34039 0.083,20.37607 3.94047,33.20642 15.60207,51.89337 4.39331,7.04 7.99279,13.12 7.99885,13.51111 0.0173,1.11687 18.67675,15.81149 30.09795,23.70262 17.55133,12.12655 26.01416,23.74403 36.0516,49.49036 9.64925,24.7506 18.09673,44.03334 21.0213,47.98452 5.97159,8.06777 10.42609,8.3151 17.93532,0.99583 4.09227,-3.98875 5.14975,-6.13511 9.56688,-19.41777 5.60791,-16.86338 16.39587,-40.01032 25.46346,-54.63504 13.2453,-21.36278 25.12371,-35.26566 50.04267,-58.5716 18.45051,-17.25619 34.14258,-29.42914 54.01214,-41.89935 9.04585,-5.6772 16.93519,-11.09613 17.53186,-12.04206 0.79276,-1.25676 0.21239,-4.54694 -2.15541,-12.21924 l -3.24029,-10.49938 -8.95824,0.32447 c -10.55996,0.38247 -19.87863,2.31381 -30.62672,6.34754 -6.69314,2.51192 -8.58273,3.83745 -13.29732,9.32799 -13.73871,15.99989 -19.80662,21.45509 -28.2657,25.41152 -17.95653,8.39854 -34.35563,9.74301 -55.1685,4.52297 -14.57243,-3.65491 -18.36182,-3.57923 -27.14991,0.54221 -7.31705,3.43156 -15.59757,4.96413 -17.99389,3.33035 -0.77576,-0.5289 -1.82565,-2.80244 -2.33307,-5.05232 -1.93234,-8.56773 1.34353,-15.73621 11.42705,-25.0055 6.22974,-5.72669 10.77683,-8.41042 32.31649,-19.07349 16.78123,-8.30742 25.18066,-13.02608 25.41154,-14.27574 0.20327,-1.10013 -0.31089,-1.86667 -1.25204,-1.86667 -2.01852,0 -25.54634,9.88519 -42.00179,17.64701 -8.3591,3.94287 -13.3437,5.7198 -14.92898,5.32192 -1.30895,-0.32852 -5.3909,-3.28993 -9.07098,-6.58089 -3.6801,-3.29098 -9.57108,-8.1822 -13.09108,-10.86939 -7.79629,-5.95173 -7.96329,-6.17993 -7.98367,-10.90922 -0.0235,-5.45022 4.71065,-14.1608 10.5496,-19.41075 3.75215,-3.37365 6.07335,-6.8494 9.0816,-13.59868 2.22263,-4.98666 5.07119,-10.19417 6.33014,-11.57225 3.30602,-3.61884 10.34586,-6.92549 25.34936,-11.90673 15.35989,-5.09957 19.71098,-7.77092 35.6063,-21.86046 11.16447,-9.89614 30.61426,-26.2257 53.24256,-44.70113 14.1742,-11.57287 30.49077,-28.84319 30.49077,-32.27303 0,-1.4506 -2.1034,-5.60346 -4.67423,-9.22859 -11.22999,-15.83542 -14.91095,-27.01185 -14.9935,-45.524479 -0.0496,-11.111787 0.35337,-14.632921 2.41818,-21.13323 1.36269,-4.289944 3.06103,-12.44532 3.77408,-18.123057 1.22659,-9.766876 1.45216,-10.37792 4.18596,-11.339349 1.81686,-0.638956 3.97843,-0.642772 5.82285,-0.01024 3.0487,1.045475 5.35322,5.12572 19.24421,34.072579 3.09682,6.453333 8.3825,15.573333 11.74595,20.266666 5.63415,7.86184 6.40761,8.53333 9.82926,8.53333 3.50945,0 3.7319,-0.21631 4.04074,-3.929074 0.19905,-2.392915 -0.63503,-6.146254 -2.13334,-9.6 -2.32337,-5.355616 -2.45028,-6.862001 -2.28254,-27.092936 0.0977,-11.782109 0.7044,-23.378263 1.34822,-25.769231 1.17692,-4.370785 7.243,-10.942125 10.10077,-10.942125 2.82951,0 7.18879,4.622844 10.41216,11.041706 2.2405,4.461603 6.78947,10.138941 14.22885,17.758294 11.207,11.478115 13.23285,14.249985 14.33764,19.617458 0.78888,3.832663 6.33618,7.049209 12.15718,7.049209 2.27098,0 8.03847,-1.16338 12.81665,-2.585288 4.77816,-1.421908 10.19129,-2.887684 12.02917,-3.25728 4.56418,-0.917857 11.71027,-7.268531 13.17585,-11.709277 1.41082,-4.274812 0.004,-7.812774 -4.9925,-12.560978 -3.05449,-2.902334 -3.09804,-2.909085 -12.09523,-1.874761 -12.49836,1.436819 -12.51141,1.434915 -14.33565,-2.092779 -2.27596,-4.401213 -2.03835,-6.867566 1.01072,-10.491178 3.78718,-4.500807 10.49091,-6.095126 25.62855,-6.095126 10.34695,0 14.28142,0.465641 20.53005,2.429705 12.44552,3.911868 15.74688,7.850458 20.53458,24.498173 l 2.22246,7.727878 12.22561,5.877138 c 13.19817,6.344679 19.36469,11.116605 23.51327,18.195599 1.45267,2.478813 3.70611,4.792407 5.00763,5.141321 4.54406,1.218177 11.99927,0.601577 16.23307,-1.342594 5.28071,-2.424913 7.77857,-5.153397 8.63417,-9.431359 0.65259,-3.263024 0.59977,-3.3091 -5.05401,-4.408473 -3.14242,-0.611042 -6.67349,-1.260579 -7.84683,-1.443417 -2.30407,-0.359037 -3.25925,-3.671052 -2.2353,-7.75077 0.9373,-3.734502 5.81142,-5.158611 15.84463,-4.62945 19.32233,1.01908 28.93308,10.26621 30.36636,29.21745 0.74052,9.791265 0.1771,11.855205 -5.0369,18.451415 -4.41032,5.57946 -5.34461,9.57585 -2.82723,12.09322 0.79468,0.79469 4.69098,3.34329 8.65845,5.66355 13.70617,8.01567 21.72744,19.63245 24.75199,35.84701 0.91618,4.91165 3.60263,13.97028 5.96991,20.13028 2.36726,6.16 4.9201,14.97461 5.67298,19.58802 1.23087,7.54252 2.06904,9.42409 8.31525,18.66666 5.89184,8.71821 7.68111,12.55241 11.78592,25.25595 3.89623,12.058 5.51793,15.63169 8.32007,18.33458 4.23576,4.08575 8.05472,5.62145 13.9793,5.62145 11.30988,0 12.34566,-9.21135 1.47705,-13.13556 -2.87266,-1.0372 -3.31065,-3.52687 -1.1349,-6.45122 3.09289,-4.15707 7.13904,-6.01322 13.10793,-6.01322 4.61329,0 5.92007,0.4668 8.21178,2.93334 7.42999,7.9968 9.79721,20.70971 5.81804,31.24517 -3.05422,8.08652 -10.99364,17.56816 -19.31199,23.06337 -9.6606,6.3819 -33.03511,26.17526 -33.0524,27.98853 -0.007,0.8234 1.18576,4.03373 2.65246,7.13408 6.18849,13.08139 7.45544,30.81379 3.17009,44.36931 l -1.91801,6.06713 7.036,21.6662 c 3.8698,11.91641 8.29625,25.74621 9.83657,30.73287 3.17676,10.28456 6.91559,16.66681 13.55463,23.13804 5.50227,5.36319 8.79491,6.73394 16.12343,6.7123 6.14502,-0.0181 7.31959,-0.52305 9.10421,-3.91355 2.18458,-4.15037 1.5031,-8.50781 -1.70698,-10.91443 -5.18557,-3.88766 -5.6,-4.39823 -5.6,-6.89909 0,-4.36979 3.47819,-6.38047 9.75202,-5.63743 11.77078,1.39408 19.04798,10.69698 19.04798,24.35025 0,13.85568 -5.66834,22.83814 -19.73334,31.2709 -9.82482,5.89053 -18.07027,8.02635 -30.9862,8.02635 -10.08985,0 -11.28031,0.21688 -13.99161,2.54904 l -2.96343,2.54904 1.30395,7.60409 c 1.61451,9.41509 1.67868,22.69725 0.14582,30.17866 -0.63699,3.10887 -6.87838,17.49973 -13.86979,31.97968 -17.27863,35.78593 -19.1054,40.53239 -19.1054,49.64108 0,5.74915 0.59532,8.54087 2.7384,12.84146 3.38962,6.80208 9.07092,11.99028 13.12987,11.99028 2.55704,0 3.1763,-0.60831 4.24273,-4.16774 0.71618,-2.39036 2.89434,-5.61263 5.10755,-7.55587 l 3.85887,-3.38812 -4.93871,-5.0141 c -5.04191,-5.11888 -5.78633,-7.23063 -3.83452,-10.87763 0.81487,-1.5226 2.24521,-2.06321 5.45883,-2.06321 3.61986,0 5.03845,0.68382 8.40732,4.05271 5.04074,5.04072 6.08917,9.83791 4.35832,19.94185 -1.55076,9.05275 -4.9369,16.70388 -11.40266,25.76481 -3.04649,4.26929 -4.74172,7.70408 -4.53038,9.17928 0.39336,2.74567 10.14802,10.35304 20.02716,15.61857 5.96824,3.18103 7.34989,3.50029 13.46378,3.11099 6.19394,-0.39441 7.58167,-0.96449 15.27176,-6.2737 13.24889,-9.14698 57.67279,-50.98896 65.60763,-61.79451 22.54183,-30.69716 39.27197,-59.90421 44.84443,-78.28826 4.30251,-14.19441 8.47396,-35.1582 10.10404,-50.7784 1.18028,-11.31 3.92693,-102.31839 4.95761,-164.26667 0.30747,-18.48 1.05093,-39.36 1.65216,-46.4 2.21959,-25.99012 8.77076,-53.82175 18.4082,-78.20448 l 4.77128,-12.07116 12.6934,-13.04372 c 11.9317,-12.26095 18.9007,-21.08942 23.1055,-29.2707 5.3045,-10.32073 11.6546,-10.12057 17.0394,0.53709 0.9504,1.88113 1.7247,5.98437 1.7247,9.13973 0,11.69499 -4.9487,22.72626 -21.0243,46.86526 l -9.3757,14.07838 0.1202,15.51813 c 0.088,11.3956 0.7277,18.40578 2.4072,26.38788 2.0844,9.90632 11.2133,37.5292 14.5757,44.10413 1.9581,3.82883 12.3818,17.21418 20.6666,26.53853 7.0108,7.89046 27.4807,26.75426 29.0321,26.75426 0.4496,0 2.5919,-2.67323 4.7606,-5.94053 8.9111,-13.42512 29.6225,-32.59569 41.9095,-38.79164 11.7436,-5.92185 31.5083,-10.05888 39.0334,-8.17019 3.2386,0.81284 3.6267,4.87384 1.0541,11.03092 -2.3718,5.6765 -4.2325,7.35604 -13.4793,12.16669 -5.8696,3.05376 -10.2449,6.39079 -15.0311,11.4645 -7.3592,7.80099 -10.0671,12.74558 -14.6166,26.68818 -5.8791,18.01728 -6.4324,24.68033 -6.4324,77.45798 0,36.15006 -0.4052,51.7664 -1.6214,62.4787 -4.662,41.06327 -3.2795,72.58115 3.856,87.91085 1.5544,3.33971 6.4379,9.36624 13.1839,16.27009 l 10.7149,10.96556 8.9935,-1.2295 c 16.391,-2.2408 27.2861,0.54355 37.5788,9.60351 9.5214,8.38105 10.5347,15.57229 3.7844,26.85725 -4.3114,7.20753 -6.904,8.23661 -16.1307,6.40265 -7.8233,-1.55503 -12.1184,-0.94972 -18.226,2.56865 -5.3154,3.06199 -7.8962,6.57528 -11.5028,15.65937 -5.9818,15.06691 -10.4981,40.32615 -10.5714,59.1263 -0.091,23.2828 16.4262,43.05463 38.6633,46.2823 10.5356,1.52922 12.564,2.5066 14.4197,6.94791 1.3793,3.30107 1.3739,4.56734 -0.046,10.68702 -1.6297,7.02692 -4.4745,13.54908 -8.2422,18.89677 -3.0721,4.36041 -6.9348,3.9135 -12.1049,-1.4005 -6.3134,-6.48921 -9.9848,-8.32559 -19.2094,-9.60863 -10.4108,-1.448 -26.2818,-5.52471 -34.4849,-8.8579 -10.3849,-4.21977 -30.1527,-18.30849 -50.6746,-36.11634 -11.4648,-9.94858 -18.0306,-14.44236 -29.2103,-19.9922 -18.3545,-9.11153 -36.0959,-12.22906 -55.17064,-9.6946 -12.51713,1.66316 -27.96213,6.83256 -34.892,11.67825 -5.88409,4.11481 -14.70747,14.12186 -14.70747,16.68109 0,2.42971 18.06596,22.72868 31.78012,35.70828 17.28911,16.36305 19.65885,17.42824 40.32419,18.12569 11.4772,0.38736 16.6148,0.96754 17.8809,2.01929 1.5023,1.24787 1.7619,3.63768 1.6812,15.47634 -0.082,11.95831 0.2464,14.91421 2.248,20.26379 2.8703,7.67154 7.6409,13.12195 15.0952,17.24601 l 5.6571,3.12982 25.0667,0.004 c 21.7463,0.003 25.6242,0.25577 29.2759,1.90381 10.3709,4.68046 17.6574,13.21565 17.6574,20.68324 0,5.29753 -0.7269,5.83012 -10.6528,7.80511 -3.219,0.6405 -6.9974,1.91461 -8.3966,2.83133 -2.2566,1.47858 -2.4695,2.20904 -1.8855,6.4692 1.38,10.0689 13.1631,29.74814 31.4031,52.44758 13.425,16.70731 15.5215,22.56841 10.2943,28.78061 -1.9687,2.3396 -4.3191,3.5751 -8.6412,4.5424 -3.2654,0.7307 -6.1697,1.935 -6.4541,2.6761 -0.2844,0.7411 0.8995,3.4138 2.631,5.9394 9.9258,14.4783 14.3484,32.7939 14.2445,58.992 -0.065,16.4952 -1.1413,23.9942 -4.3431,30.2702 -3.1725,6.2185 -4.9911,7.5975 -10.0091,7.5892 -3.8932,-0.011 -4.7782,-0.4788 -6.9947,-3.7333 -2.8841,-4.2351 -4.3485,-4.5917 -6.9684,-1.6966 -1.732,1.9139 -1.7367,3.1732 -0.082,22.1333 3.1537,36.1402 2.0128,51.4039 -4.3379,58.0326 -1.5626,1.6309 -5.6177,4.4453 -9.0117,6.2542 -7.4727,3.983 -15.8112,12.7624 -24.1011,25.3757 -4.1568,6.3247 -11.3887,14.6093 -22.228,25.4638 -17.5567,17.5814 -23.3084,21.4294 -38.9243,26.0414 -7.7211,2.2803 -8.2872,2.6919 -22.0552,16.0345 -41.78773,40.4969 -83.79889,63.9628 -134.28703,75.0077 -21.45099,4.6927 -55.15887,6.8126 -78.93334,4.9641 z m 43.2,-24.0578 c 0,-2.1142 -0.85343,-3.0777 -3.82654,-4.32 -4.02502,-1.6817 -6.84013,-0.7305 -6.84013,2.3112 0,2.0829 4.31155,4.7299 7.70401,4.7299 2.46485,0 2.96266,-0.4572 2.96266,-2.7211 z m -61.44795,-2.1649 c 0.35583,-0.9272 -0.59748,-4.7966 -2.11849,-8.5985 -3.19083,-7.9758 -2.87369,-10.9061 1.67235,-15.4521 2.6249,-2.625 3.89644,-3.0634 8.88463,-3.0634 h 5.8213 l 0.76362,11.2035 c 0.70032,10.2746 0.98814,11.3801 3.47127,13.3334 1.4892,1.1714 4.10931,2.1298 5.82248,2.1298 2.77961,0 3.39452,-0.6602 5.71333,-6.1334 5.00194,-11.8064 6.17554,-13.5797 9.2195,-13.9313 1.83771,-0.2121 3.68494,0.4849 5.13978,1.9399 5.0289,5.0288 19.64621,6.9058 31.84766,4.0894 4.56572,-1.054 6.07842,-0.9582 10.29404,0.6518 7.22585,2.7596 19.10513,2.5496 24.96767,-0.4412 2.51028,-1.2806 7.51571,-2.7891 11.12315,-3.352 8.29908,-1.2951 15.74535,-5.0212 17.48477,-8.7493 0.73749,-1.5807 1.94089,-4.1473 2.67422,-5.7036 2.52857,-5.3664 6.57291,-7.3344 14.44698,-7.0302 10.94689,0.4231 13.37277,-0.8128 18.36072,-9.3534 6.46382,-11.0675 5.65772,-10.6534 20.73788,-10.6534 10.64963,0 13.38987,-0.3173 14.52209,-1.6815 1.20039,-1.4464 0.6405,-2.3787 -4.00383,-6.6667 -3.4466,-3.1821 -5.66976,-6.2345 -6.14701,-8.4395 -0.94606,-4.3713 -1.7315,-4.8454 -10.1835,-6.1456 l -6.93333,-1.0667 v -4.1621 c 0,-3.7244 0.41783,-4.3789 3.97316,-6.2239 5.43586,-2.821 9.42616,-1.8074 12.68246,3.2216 2.85528,4.4097 6.93431,5.6601 14.94663,4.5816 3.52776,-0.4748 4.86848,-1.2322 5.81291,-3.2839 4.75708,-10.3339 6.63088,-13.3579 10.13708,-16.3591 2.1839,-1.8693 4.1381,-4.3533 4.3426,-5.5198 0.335,-1.9107 -0.3118,-2.1532 -6.5206,-2.4445 -3.7908,-0.1779 -7.51084,-0.8367 -8.26667,-1.464 -2.21177,-1.8355 -1.59056,-6.7343 1.2415,-9.7902 2.27598,-2.4558 3.45807,-2.8224 9.10097,-2.8224 3.5669,0 8.2084,0.72 10.3145,1.6 5.1447,2.1496 8.038,2.0172 13.6595,-0.6252 7.1955,-3.3823 7.3679,-3.8016 5.9485,-14.4681 -1.1419,-8.5806 -1.0811,-9.4992 0.7955,-12.0316 1.1175,-1.5079 4.8669,-4.2096 8.3319,-6.0037 5.7461,-2.975 6.5157,-3.801 8.7512,-9.3922 7.6713,-19.1859 9.2613,-35.3065 9.273,-94.0125 0.01,-39.5278 -0.2903,-48.953 -1.8893,-59.7333 -10.2101,-68.83502 -31.4795,-120.49999 -72.01662,-174.93341 -15.58347,-20.92556 -67.72952,-69.23856 -111.65119,-103.44414 -16.44882,-12.8101 -36.62704,-25.94462 -51.2337,-33.34933 -2.93333,-1.48703 -8.15436,-4.87184 -11.60228,-7.5218 -14.21784,-10.9274 -32.50387,-20.50523 -54.23441,-28.40685 -2.77019,-1.00728 -7.39502,-3.95175 -10.2774,-6.54327 -4.23878,-3.81102 -6.09187,-6.70522 -9.69285,-15.13848 l -4.45214,-10.42662 -18.35388,-17.6948 c -10.09462,-9.73213 -19.92695,-18.50825 -21.84961,-19.5025 -5.6825,-2.93853 -6.72886,-8.98505 -4.42338,-25.56089 1.10981,-7.97924 1.09995,-8.03774 -2.59229,-15.36955 -7.5211,-14.9349 -8.28388,-23.86981 -4.93799,-57.84177 0.6067,-6.16 1.13985,-31.46788 1.18479,-56.23974 0.0796,-43.83585 0.0229,-45.12224 -2.11575,-48.1258 -1.20859,-1.69733 -3.76991,-3.72219 -5.69179,-4.49969 -1.92189,-0.77751 -3.847,-1.9209 -4.27802,-2.54088 -1.49244,-2.14672 -0.8021,-7.33709 2.33321,-17.54232 1.73224,-5.63836 4.9705,-16.73157 7.19615,-24.65157 l 4.04661,-14.4 -0.005,-44.26666 c -0.006,-56.02283 -0.82998,-64.6776 -7.3996,-77.75851 -5.5409,-11.03258 -9.59153,-23.68815 -8.70823,-27.20749 1.51728,-6.0442 -11.40664,-28.36734 -16.42291,-28.36734 -1.06982,0 -2.12889,-0.55132 -2.35351,-1.22518 -0.22462,-0.67386 -2.92583,-1.86944 -6.00269,-2.65686 -9.80101,-2.50827 -17.29116,-6.98649 -27.44306,-16.40774 -8.05422,-7.47454 -11.04023,-9.52949 -16.80376,-11.56418 -7.27862,-2.56957 -18.29145,-3.37365 -25.03446,-1.82785 l -3.51458,0.8057 0.72794,8.97139 0.72793,8.97139 h -3.88002 c -4.77264,0 -7.02478,-2.10501 -11.28817,-10.55075 -3.19925,-6.33768 -3.20191,-6.35851 -1.9976,-15.68793 2.25389,-17.4602 -2.41222,-37.291545 -12.05015,-51.214145 -6.25425,-9.034659 -14.79173,-17.480514 -17.67014,-17.480514 -3.94731,0 -4.81271,3.343863 -4.42784,17.109123 0.3919,14.016649 1.41615,16.673478 5.1316,13.311041 1.86992,-1.692256 2.7092,-1.791986 6.22242,-0.739402 2.23352,0.669181 5.15174,2.37779 6.48494,3.79691 3.55994,3.789383 2.61273,6.937799 -3.08508,10.254507 -4.4063,2.56492 -4.82785,3.18006 -5.13951,7.49998 -0.18674,2.58824 0.17263,8.51142 0.79858,13.16261 1.63888,12.17786 -0.42375,13.82475 -10.75676,8.58862 -6.04969,-3.06561 -8.37484,-2.89734 -14.59094,1.05597 -4.38757,2.79041 -21.6081,18.14627 -45.51137,40.58333 -8.8,8.26022 -23.2,20.74377 -32,27.74123 -8.8,6.99745 -21.28436,17.78817 -27.74302,23.97936 -12.58952,12.06818 -25.5996,21.54013 -39.72365,28.92069 -4.84,2.52916 -8.8,5.21658 -8.8,5.97205 0,0.75547 1.04348,3.52138 2.31885,6.14647 2.07347,4.26783 2.17961,5.23762 1.003,9.16479 -0.78213,2.61052 -3.40585,6.56025 -6.46859,9.73778 -4.19862,4.356 -5.71754,5.28129 -8.203,4.99708 -2.37433,-0.27151 -3.1213,-0.95996 -3.37085,-3.10677 -0.1784,-1.53476 0.41296,-3.36677 1.33333,-4.13061 2.11246,-1.75318 2.13883,-6.84778 0.0445,-8.58597 -2.13518,-1.77204 -8.26365,2.41676 -15.92949,10.8878 -7.34581,8.11737 -10.03137,13.06276 -8.43675,15.53603 2.81259,4.36234 28.22508,-0.23681 52.79413,-9.55467 16.68965,-6.32958 22.80968,-6.33589 41.9816,-0.0433 17.50704,5.74613 31.88091,12.75058 32.30975,15.74468 0.60866,4.24962 -19.05441,16.697 -33.62621,21.28653 -10.86678,3.42259 -25.35814,10.01965 -31.90694,14.52533 -4.83885,3.32923 -4.89294,3.42943 -2.75886,5.11066 1.30411,1.02737 2.48011,3.63913 2.93344,6.51484 0.41618,2.64 1.2412,5.4 1.83337,6.13334 1.72898,2.14115 16.23804,1.65024 25.37023,-0.8584 12.50707,-3.43572 19.18452,-8.07485 34.11189,-23.69911 12.50183,-13.08548 13.94683,-14.24665 23.17083,-18.61985 5.41062,-2.56523 14.53062,-5.94927 20.26666,-7.52007 10.36156,-2.83749 10.66776,-2.85616 47.22918,-2.8793 l 36.8,-0.0232 6.44685,-2.72056 c 9.21071,-3.8869 22.14567,-12.20089 26.52665,-17.05011 5.26427,-5.82692 8.62079,-12.95386 12.34175,-26.20538 1.76685,-6.2923 3.33372,-11.54263 3.48193,-11.6674 0.14821,-0.12476 2.99091,-1.75009 6.3171,-3.61181 4.35103,-2.43535 6.37091,-4.31236 7.2,-6.69069 1.61905,-4.6444 1.43373,-10.31499 -0.52496,-16.06342 -2.08328,-6.11407 -1.68794,-10.77315 0.9567,-11.275 7.38229,-1.40089 12.16232,19.8904 7.32031,32.60626 -1.06351,2.79296 -4.25376,8.19811 -7.08943,12.01144 -2.83567,3.81334 -7.56639,11.97334 -10.51269,18.13334 -4.36021,9.11609 -6.68417,12.51283 -12.49021,18.25588 -8.70941,8.61491 -17.73938,14.85579 -29.18059,20.16755 -8.43448,3.91585 -9.07689,4.03915 -24.66008,4.73299 -21.38712,0.95227 -26.29892,2.71194 -23.94096,8.57691 0.47172,1.17333 0.89142,5.48574 0.93265,9.58314 l 0.075,7.44979 -7.13521,6.66037 c -8.26342,7.71348 -15.91461,13.19392 -34.46479,24.68658 -7.33334,4.54333 -16.39753,10.49331 -20.14265,13.22219 -10.97836,7.99936 -38.10887,33.67875 -45.3573,42.93126 -8.93747,11.40855 -34.18687,51.26127 -38.56683,60.87246 -9.03626,19.82877 -21.35639,61.87723 -22.55918,76.99421 -0.58582,7.36277 -0.50689,7.73333 1.64719,7.73333 2.2204,0 8.52651,-6.94521 12.66068,-13.94381 2.14804,-3.63634 5.65142,-4.22777 5.65142,-0.95406 0,1.19284 -1.27794,4.67284 -2.83987,7.73333 -1.56193,3.0605 -3.84193,8.00919 -5.06667,10.99711 -2.4747,6.03717 -12.98329,16.43406 -16.61075,16.43406 -3.5065,0 -5.01473,-4.96674 -5.81844,-19.16068 -0.41402,-7.31171 -0.98619,-13.67171 -1.27149,-14.13333 -0.94426,-1.52784 -6.20702,-0.86335 -9.61353,1.21381 -1.8447,1.12485 -4.64367,3.66143 -6.2199,5.63687 -5.68297,7.12224 -15.71613,33.38616 -19.78737,51.79766 -2.08041,9.40827 -2.66188,27.17118 -1.10795,33.84567 0.63066,2.70882 0.86646,2.13577 1.53622,-3.73334 1.76337,-15.45269 8.64424,-37.679 12.37941,-39.98746 1.6053,-0.99213 1.37065,1.31393 -1.65343,16.24935 -3.60607,17.80975 -3.56544,25.93244 0.17332,34.65037 1.57745,3.67826 3.08896,9.00146 3.35891,11.82933 0.56767,5.94662 1.81191,6.78185 6.92208,4.64668 3.50049,-1.46259 3.81988,-2.04528 6.02916,-10.99967 3.22634,-13.07669 9.44077,-31.86454 12.65364,-38.25526 1.4747,-2.93334 5.37872,-8.97926 8.6756,-13.43537 3.29689,-4.45612 8.15034,-11.12083 10.78544,-14.81045 9.90544,-13.86937 25.58278,-25.78066 48.0089,-36.47607 8.50667,-4.05697 24.92381,-12.15422 36.48254,-17.99388 11.55873,-5.83967 22.16433,-10.61757 23.56801,-10.61757 1.40368,0 3.46654,1.01577 4.58413,2.25726 1.84516,2.04971 2.66947,2.17993 8.96532,1.41628 3.81333,-0.46254 9.33333,-0.76925 12.26667,-0.68159 29.24521,0.87398 27.36763,1.02171 34.63897,-2.72528 5.68924,-2.93171 7.86951,-3.46667 14.12893,-3.46667 5.4615,0 9.19891,-0.71905 14.25862,-2.74325 7.6654,-3.06665 10.43218,-3.04437 10.87059,0.0875 0.35083,2.50631 -5.40516,6.02268 -18.11639,11.0674 -15.30355,6.07355 -26.29568,7.58838 -55.06353,7.58838 h -25.61472 l -0.68326,-3.11089 c -0.3758,-1.71098 -1.37566,-3.37658 -2.22191,-3.70132 -0.8821,-0.3385 -7.83626,3.64244 -16.29746,9.32956 -8.11734,5.456 -22.87563,14.14899 -32.79618,19.31776 -23.22237,12.09924 -31.94089,18.01128 -43.16875,29.2728 -14.79451,14.83885 -24.63867,32.13619 -29.8051,52.37111 -2.42813,9.51006 -1.91951,11.72098 2.69642,11.72098 1.90268,0 4.6512,-3.10762 12.6274,-14.27726 11.99546,-16.79804 19.39597,-23.813 31.15724,-29.534 7.77423,-3.78159 15.41612,-5.46627 15.37165,-3.38874 -0.01,0.44 -3.96942,2.95772 -8.8,5.59494 -11.20989,6.11993 -21.96603,16.27295 -27.0253,25.50991 -7.18381,13.11585 -18.3223,25.15923 -31.35758,33.90509 -2.64,1.77128 -12.48,7.10165 -21.86667,11.84527 -31.42881,15.88277 -58.73207,32.42383 -86.00573,52.10461 -12.00193,8.66064 -12.85254,9.0761 -26.13333,12.76404 -21.86413,6.07145 -23.81301,7.8385 -28.28087,25.64215 -1.74378,6.9487 -7.90676,27.75399 -13.6955,46.23399 -19.36088,61.8077 -29.8683,97.18509 -32.06175,107.94854 -2.70491,13.27318 -4.06336,35.32315 -3.0425,49.3848 0.42592,5.86666 1.10028,23.38669 1.49859,38.93339 l 0.72419,28.2667 -5.43489,25.403 c -2.98918,13.9716 -5.43048,26.9316 -5.42511,28.8 0.009,3.0147 0.39027,2.5809 3.39126,-3.8554 3.0111,-6.458 3.68182,-7.2175 6.12356,-6.9333 2.56209,0.2981 2.73344,0.6732 2.61049,5.7158 -0.0834,3.4225 -1.51626,8.8855 -3.91661,14.9333 -2.08176,5.2452 -4.11786,12.2966 -4.52465,15.6699 -0.84586,7.0143 -0.56294,7.1929 7.1054,4.4854 2.5671,-0.9063 9.46745,-2.8655 15.33412,-4.3535 12.6113,-3.1988 27.49844,-3.572 36.8,-0.9225 3.22666,0.9191 7.89529,1.9541 10.37474,2.3 4.06668,0.5674 4.60442,0.3756 5.49216,-1.9593 0.54125,-1.4236 1.32259,-5.9247 1.73632,-10.0026 0.87248,-8.5993 2.84784,-12.4967 6.08858,-12.0129 3.08524,0.4607 3.66667,2.0695 4.98132,13.7823 1.34132,11.9505 3.21087,18.3966 5.46021,18.8264 5.33375,1.0189 6.24559,-17.9897 1.57389,-32.81 -5.31915,-16.8742 -18.69888,-46.6983 -32.17002,-71.7085 -15.80181,-29.3375 -17.40387,-32.8658 -17.40387,-38.3293 0,-4.97597 0.11079,-5.16231 3.0694,-5.16231 3.86066,0 4.53215,0.83909 8.99683,11.24231 2.0042,4.6701 6.4692,12.9185 9.92222,18.3298 3.45302,5.4113 8.79916,14.5313 11.88031,20.2666 6.76102,12.5853 17.86819,27.2198 20.30314,26.7508 2.75514,-0.5305 6.99548,-10.0438 7.48339,-16.789 0.36378,-5.0293 -0.0537,-7.061 -2.40325,-11.6978 -3.47688,-6.8613 -3.24522,-10.6527 0.78632,-12.869 2.94497,-1.619 3.02168,-1.5809 8.53333,4.233 l 5.56164,5.8667 0.31789,-4.8898 c 0.19889,-3.0594 -0.52153,-7.1333 -1.92468,-10.8835 -2.30256,-6.1542 -4.41707,-8.7278 -42.94971,-52.27547 -8.07941,-9.13093 -15.35791,-18.2006 -16.17443,-20.15482 -2.37243,-5.678 -3.8024,-19.02986 -3.8024,-35.50341 0,-13.60165 0.41562,-17.14835 3.77204,-32.18948 8.49617,-38.07377 12.30044,-48.54925 21.36017,-58.81753 2.98218,-3.38 7.44711,-6.89136 11.1211,-8.74599 5.04141,-2.54489 6.449,-3.87475 7.87593,-7.44097 0.95558,-2.38826 1.73743,-5.82508 1.73743,-7.63739 0,-3.21914 -0.0923,-3.27922 -4,-2.60569 -8.95253,1.54302 -19.24596,1.87049 -21.46502,0.68289 -2.74586,-1.46955 -2.96943,-4.97035 -0.40165,-6.28945 1.02667,-0.52742 4.50667,-1.2186 7.73333,-1.53598 3.22667,-0.31738 7.84676,-1.37089 10.26685,-2.34114 3.88682,-1.55828 5.05109,-2.93905 9.97921,-11.83488 3.06847,-5.53895 5.94961,-10.0708 6.40254,-10.0708 0.45294,0 1.48229,0.79639 2.28747,1.76975 2.56699,3.10322 11.82746,6.74213 17.18582,6.75317 2.78037,0.005 7.58037,-0.94934 10.66667,-2.12238 3.61823,-1.37521 8.19527,-2.13298 12.88563,-2.13334 6.83595,-5e-4 7.25365,0.1375 6.93333,2.29053 -0.18746,1.26009 -1.06085,2.67373 -1.94085,3.14144 -4.79382,2.54782 -22.42864,6.6467 -33.6,7.80967 -17.3123,1.80226 -19.27575,2.79313 -13.57644,6.8514 6.25889,4.45671 22.0869,7.71994 37.57644,7.74705 20.63835,0.0362 41.33366,-4.14808 64.17308,-12.97453 22.14854,-8.55948 49.30651,-14.98019 78.76025,-18.62056 17.21201,-2.12735 18.58428,-2.96096 18.45978,-11.21384 -0.0611,-4.05395 -0.67775,-6.06814 -2.42787,-7.93107 -3.69417,-3.93225 -8.03278,-4.13598 -19.85607,-0.93241 -20.2839,5.49602 -24.3371,3.00036 -8.14619,-5.01584 5.73197,-2.83793 11.89025,-6.85662 14.63481,-9.5502 5.37931,-5.2794 11.36579,-16.10859 13.26862,-24.00217 0.70712,-2.93333 2.33145,-6.45894 3.60962,-7.83468 2.10463,-2.26527 7.20346,-5.49865 8.671,-5.49865 1.68502,0 0.071,6.70955 -4.22972,17.58347 -2.64881,6.6972 -5.11444,13.66883 -5.47918,15.49253 l -0.66315,3.3158 3.6078,-1.47213 c 2.95703,-1.2066 4.76312,-3.5267 10.01252,-12.86206 6.85429,-12.18945 9.71447,-14.38203 10.33712,-7.92428 0.2889,2.99634 0.77612,3.50989 3.59125,3.78528 2.51787,0.2463 4.93851,-0.91133 10.66667,-5.10119 7.30469,-5.34303 16.64191,-10.28438 23.94299,-12.67087 3.07164,-1.00403 4.45838,-2.55222 7.8241,-8.73508 3.77824,-6.94066 4.06346,-8.06086 3.73333,-14.66311 l -0.35743,-7.14836 3.97575,-0.32961 3.97573,-0.32961 5.06499,10.19627 c 2.78575,5.60796 5.39696,10.19628 5.80271,10.19628 0.83149,0 3.59543,-7.15438 4.945,-12.8 0.7151,-2.99146 1.46783,-3.80086 3.78799,-4.07315 2.47092,-0.28999 3.14317,0.2528 4.58399,3.70116 2.32717,5.56971 1.39295,12.32834 -2.46399,17.82574 -5.53872,7.89452 -24.09878,17.38086 -43.53883,22.25342 -9.77158,2.4492 -11.2,3.31631 -11.2,6.79885 0,3.23514 3.13314,5.24113 11.55667,7.39913 8.85814,2.26936 13.16104,1.45421 26.22913,-4.96883 10.29608,-5.06059 13.76907,-6.00172 16.18785,-4.38666 1.98719,1.32689 3.62635,5.28067 3.62635,8.74702 0,4.04551 2.48275,5.28306 5.36529,2.6744 1.14721,-1.03821 5.32933,-2.4777 9.2936,-3.19888 3.96427,-0.72118 9.4186,-2.16785 12.12072,-3.21482 5.77877,-2.23907 8.42039,-1.58301 8.42039,2.09123 0,5.22276 -18.90041,15.43052 -30.25889,16.34226 -7.17082,0.5756 -11.17342,-0.74696 -14.97562,-4.94833 -2.57031,-2.84017 -4.45271,-2.81712 -26.25532,0.32162 -18.88498,2.71871 -23.06584,3.97835 -28.54849,8.60126 -5.06144,4.26776 -6.98243,8.64711 -7.03352,16.03458 -0.0656,9.49155 1.68163,13.33844 8.60706,18.94981 5.41486,4.38743 6.72856,4.9405 13.30314,5.60077 l 7.29497,0.7326 v 4.14158 c 0,5.82421 -4.65841,11.00191 -9.89851,11.00191 -4.64597,0 -5.70044,-0.8609 -13.10488,-10.69909 -3.25396,-4.32351 -6.62532,-7.86091 -7.49192,-7.86091 -0.86658,0 -4.05151,1.25462 -7.07759,2.78806 -5.30045,2.68594 -5.71916,2.73478 -11.43121,1.33333 -7.22373,-1.77234 -21.54927,-1.74243 -26.99589,0.0563 -3.19654,1.05568 -4,1.85414 -4,3.9751 0,3.71346 1.86007,6.78049 4.1122,6.78049 1.04709,0 3.9102,-1.71741 6.36247,-3.81645 l 4.45866,-3.81646 v 5.46943 c 0,3.00818 -0.72872,6.87862 -1.6194,8.60099 -2.87063,5.5512 -10.19519,5.50124 -16.02935,-0.10933 -2.41895,-2.32625 -7.43876,-4.48489 -19.6528,-8.4512 -9.02223,-2.92981 -16.59377,-5.13721 -16.82566,-4.90532 -0.90085,0.90085 4.36223,9.60896 8.55987,14.16286 6.98722,7.58023 37.48194,25.19619 57.35125,33.13022 36.4177,14.54201 54.62159,20.61474 79.41609,26.49283 13.49334,3.1989 36.69458,8.9374 51.55834,12.75224 14.86375,3.81484 32.86375,8.15941 40,9.65461 15.68944,3.2873 38.30756,8.89669 55.64166,13.79939 7.04,1.99115 18.8,4.81923 26.13334,6.2846 47.08801,9.40931 100.78323,29.4327 133.73847,49.87219 17.58525,10.90672 37.39477,28.081 50.22458,43.54319 7.24781,8.735 20.12997,29.641 37.98885,61.6508 l 11.48264,20.5811 0.74977,-6.1811 c 0.89835,-7.4061 2.05459,-9.9145 4.57008,-9.9145 2.48736,0 8.99075,6.8763 11.78252,12.4581 3.26892,6.5359 5.45451,22.2732 5.45451,39.2752 0,18.1647 -2.09405,31.9484 -6.24693,41.1195 -1.71363,3.7843 -5.36186,13.3605 -8.10717,21.2805 -4.80731,13.8687 -18.88658,42.2129 -26.37344,53.0948 -4.14701,6.0275 -20.37192,19.4552 -36.80571,30.4604 -10.73697,7.1903 -13.12489,9.2703 -13.6751,11.9115 -1.26659,6.0801 -4.03505,13.8693 -5.20703,14.6503 -3.17786,2.1176 -9.18562,0.7433 -15.21549,-3.4806 l -6.13416,-4.2971 -11.77987,0.625 -11.77986,0.625 -5.06666,-3.2633 c -6.71372,-4.324 -6.8928,-7.8931 -0.8054,-16.052 5.67486,-7.6061 8.26524,-13.1773 10.4446,-22.4635 1.60614,-6.8439 2.25737,-8.0176 5.71928,-10.3086 2.652,-1.755 5.0525,-2.4756 7.47414,-2.2436 3.13581,0.3003 3.88997,1.0187 6.23404,5.9379 1.67717,3.5197 3.34264,5.5976 4.48838,5.6 2.54338,0.011 7.40926,-8.7289 8.0551,-14.4589 l 0.53396,-4.7373 h -15.54342 c -14.68957,0 -16.23536,-0.2065 -28.13873,-3.7585 -15.87847,-4.7381 -39.13369,-16.202 -52.59529,-25.9271 -11.28409,-8.1521 -18.47713,-16.7159 -29.43566,-35.0449 -7.08301,-11.847 -17.02833,-34.193 -18.56758,-41.7193 -2.18704,-10.6937 -3.23019,-28.4704 -3.1556,-53.7759 0.054,-18.3107 -0.30563,-27.0753 -1.17766,-28.7048 -0.96879,-1.8101 -0.95054,-3.6161 0.08,-7.9116 1.23888,-5.1642 1.15524,-5.9266 -1.15837,-10.5591 -3.19368,-6.3948 -2.22776,-8.0635 5.93758,-10.2573 6.71879,-1.8051 9.56651,-4.4652 13.34255,-12.46323 2.82699,-5.98784 2.69224,-9.62939 -0.53187,-14.37409 -3.50313,-5.15531 -3.74325,-13.62762 -0.47877,-16.8921 2.52143,-2.52143 4.78325,-2.15509 10.8559,1.75827 2.18742,1.40962 4.41606,2.56296 4.95254,2.56296 1.78381,0 2.31062,-3.38663 1.60229,-10.30038 -0.62547,-6.10495 -0.45066,-7.10675 1.62584,-9.31708 3.09358,-3.29296 4.32406,-10.24921 1.81297,-10.24921 -0.97626,0 -4.27227,-1.26545 -7.32448,-2.81212 -11.71515,-5.93649 -20.32473,-1.92154 -15.17968,7.07879 2.09558,3.66583 1.9313,8.23367 -0.48775,13.56235 -2.46107,5.42123 -5.70361,6.62772 -10.77055,4.00749 -5.25305,-2.71645 -10.20377,-0.81209 -16.88049,6.49331 -5.64504,6.17658 -13.39545,20.319 -12.76298,23.28903 0.31367,1.47289 1.24066,1.2595 6.23511,-1.43537 7.37384,-3.97873 8.92155,-3.99893 11.6607,-0.15215 2.83688,3.98403 2.83483,9.6815 -0.004,13.29149 -2.13028,2.70824 -2.60697,2.81054 -13.09599,2.81054 -7.90966,0 -11.50459,0.4338 -13.15095,1.5869 -6.28064,4.3992 -17.38983,43.7989 -17.40468,61.7273 -0.003,4.2167 0.29988,5.064 1.6304,4.5534 0.89908,-0.345 4.98789,-1.6457 9.08625,-2.8906 6.95827,-2.1135 7.6268,-2.1485 10.09864,-0.5289 1.97969,1.2971 2.67895,2.7367 2.77346,5.7099 0.27691,8.7103 -0.59769,9.6623 -7.24326,7.8849 -4.96,-1.3266 -4.97971,-1.3211 -8.83874,2.4472 -2.12721,2.0771 -4.72434,3.7766 -5.7714,3.7766 -1.04705,0 -3.2461,1.3424 -4.88678,2.983 -9.62699,9.627 -6.23532,51.0767 7.39302,90.3503 1.83221,5.28 7.14643,17.3184 11.80937,26.752 9.34779,18.9116 10.17782,22.1212 5.58225,21.5855 -4.44693,-0.5183 -12.04514,-10.8811 -20.55225,-28.0304 -21.7718,-43.889 -26.41784,-84.9256 -15.5424,-137.2794 5.56533,-26.7913 12.53385,-47.0147 25.38087,-73.65821 6.72652,-13.95016 8.33172,-18.15079 7.37608,-19.30227 -0.88796,-1.06993 -0.92708,-3.19136 -0.14327,-7.76952 0.59303,-3.46375 1.35285,-7.97773 1.68848,-10.03106 l 0.61025,-3.73333 -2.52483,2.3641 c -2.27005,2.12553 -3.8118,2.39464 -15.27739,2.66667 l -12.75254,0.30256 -6.12418,8.53333 c -10.79693,15.04428 -18.91673,32.57518 -28.40778,61.33343 -13.6666,41.4101 -16.72625,61.0293 -15.88633,101.8666 0.80337,39.0608 4.7067,58.1313 18.88501,92.2667 6.29252,15.1498 20.43593,43.021 26.41996,52.0638 5.3294,8.0535 33.62762,36.4203 45.33098,45.4408 9.80486,7.5573 11.46595,7.9716 15.23981,3.8015 3.35159,-3.7034 6.38287,-2.724 8.46809,2.736 2.14676,5.6213 6.4753,11.1579 8.72319,11.1579 2.13287,0 4.26416,-5.6018 5.16954,-13.5874 1.03032,-9.0876 3.55417,-12.2331 9.46889,-11.8014 4.84527,0.3537 4.7213,-0.019 3.30338,9.9221 -0.59366,4.1621 -0.46321,4.3777 5.31999,8.7968 3.26073,2.4917 7.96717,7.2735 10.45876,10.6264 9.7763,13.1557 16.51798,18.1552 18.28224,13.5575 z m 107.90843,-24.1513 c -2.40663,-3.436 -2.12471,-10.6182 0.55027,-14.0188 2.90985,-3.6993 6.36603,-3.5632 9.88783,0.3894 1.56816,1.76 3.50873,3.2 4.31237,3.2 2.42773,0 4.14626,2.9639 3.41287,5.8859 -1.5594,6.2131 -14.69277,9.4983 -18.16334,4.5435 z m -45.76183,-7.0466 c -5.13417,-5.6733 3.37471,-15.9903 8.72795,-10.5828 0.72595,0.7334 4.30195,1.8148 7.94667,2.4031 5.55529,0.8969 6.62673,1.4142 6.62673,3.2 0,5.493 -19.13586,9.5824 -23.30135,4.9797 z m 84.63468,-18.8494 c -1.22315,-3.2171 0.14793,-7.4408 2.88227,-8.8791 1.05475,-0.5547 4.4372,-1.3489 7.51654,-1.7647 3.07934,-0.4159 5.86768,-1.1911 6.19628,-1.7228 0.84281,-1.3637 3.67158,-1.2055 3.67158,0.2054 0,3.0015 -3.96331,8.9674 -7.80708,11.7518 -5.5742,4.038 -11.01208,4.2166 -12.45959,0.4094 z m -223.46667,0.3683 c -3.48348,-1.9054 -4.8,-4.2656 -4.8,-8.6057 0,-4.9186 1.58077,-5.8011 6.61973,-3.6958 3.9162,1.6363 11.51361,7.8058 11.51361,9.3496 0,1.3773 -5.92366,4.1885 -8.74703,4.1511 -1.34913,-0.018 -3.41297,-0.5575 -4.58631,-1.1992 z m -27.61921,-13.2556 c -0.3561,-0.928 -0.64745,-3.7687 -0.64745,-6.3127 0,-6.287 0.83427,-8 3.89593,-8 5.91805,0 11.59006,11.3978 7.25094,14.5707 -2.77433,2.0286 -9.68714,1.8588 -10.49942,-0.258 z m 126.3633,-2.19 c -5.68183,-7.2232 0.50491,-13.5002 7.71568,-7.8282 3.756,2.9544 4.5723,6.039 2.27106,8.5819 -2.70041,2.9839 -7.32108,2.6352 -9.98674,-0.7537 z m -23.55431,-2.3688 c -4.01102,-4.0111 -4.0659,-7.525 -0.2273,-14.5539 3.83738,-7.0267 6.5308,-7.196 8.4847,-0.5334 0.77422,2.64 1.27533,7.68 1.11358,11.2 -0.28079,6.1105 -0.42725,6.4154 -3.23764,6.7385 -2.12833,0.2448 -3.82696,-0.5449 -6.13334,-2.8512 z m -20.26491,-8.1642 c -3.61677,-4.3578 2.84408,-17.7354 8.91582,-18.4606 1.75705,-0.2099 2.87064,0.1936 2.94405,1.0667 0.47453,5.6434 -1.89702,11.9588 -6.05039,16.1122 -3.33796,3.338 -3.98455,3.4807 -5.80948,1.2817 z m -20.61375,-6.5675 c -1.22207,-1.2221 -0.77658,-5.4891 0.62222,-5.9597 2.12457,-0.7149 5.06666,0.393 5.06666,1.9079 0,3.9032 -3.40935,6.3313 -5.68888,4.0518 z m -82.57778,-9.6083 c -3.09913,-2.1618 -3.18921,-7.5896 -0.18925,-11.4034 2.33588,-2.9696 6.10385,-3.6693 8.24258,-1.5305 1.82229,1.8223 1.58438,9.5441 -0.38048,12.3493 -1.93008,2.7555 -4.30164,2.9362 -7.67285,0.5846 z m 152.87619,-6.2901 c -4.39564,-4.3956 -0.27064,-15.3905 5.77413,-15.3905 2.69864,0 3.10683,0.4618 3.74438,4.2353 0.39354,2.3294 1.72099,5.5135 2.94987,7.0757 2.1705,2.7594 2.17739,2.8822 0.24102,4.2981 -2.73936,2.0031 -10.62332,1.8675 -12.7094,-0.2186 z m -114.74286,-15.424 c 0,-1.8112 0.66709,-3.4895 1.51665,-3.8155 2.5347,-0.9727 5.95002,1.5644 5.95002,4.4199 0,2.2935 -0.47644,2.6291 -3.73334,2.6291 -3.44562,0 -3.73333,-0.2492 -3.73333,-3.2335 z m -50.68725,-6.783 c -1.74118,-1.2732 -1.84878,-1.8772 -0.76008,-4.2667 0.96386,-2.1154 2.04984,-2.7835 4.52461,-2.7835 3.65242,0 4.83439,1.8172 3.81743,5.869 -0.76636,3.0535 -4.27413,3.5999 -7.58196,1.1812 z m 143.85774,-6.5565 c -0.85535,-2.2291 2.60154,-5.827 5.59854,-5.827 3.04187,0 4.02156,1.4986 3.17773,4.8606 -0.53831,2.1448 -1.31714,2.6061 -4.40056,2.6061 -2.38656,0 -3.97488,-0.5952 -4.37571,-1.6397 z m 231.74365,-28.8476 c -1.7705,-4.614 -0.6696,-7.8833 3.7275,-11.0685 5.5791,-4.0415 7.4851,-4.6154 10.9508,-3.2978 5.3784,2.0448 2.2743,10.3056 -5.2392,13.9428 -5.2628,2.5478 -8.567,2.696 -9.4391,0.4235 z m 12.8637,-44.8905 c -2.4117,-2.4117 1.0986,-9.9556 4.6325,-9.9556 3.4538,0 7.4564,2.3823 7.4564,4.4379 0,3.1419 -3.8767,6.2288 -7.8223,6.2288 -1.9555,0 -3.8755,-0.32 -4.2666,-0.7111 z m -344.1507,-34.4618 c -2.44241,-2.4424 -3.74657,-6.7349 -2.79758,-9.208 0.52064,-1.3567 1.50015,-1.5619 4.64837,-0.9736 5.57862,1.0425 6.6554,2.2751 6.6554,7.6184 0,4.4771 -0.13177,4.6694 -3.2,4.6694 -1.76403,0 -4.14513,-0.9451 -5.30619,-2.1062 z m 351.292,-11.2271 c -0.9574,-2.4947 0.3942,-4.8 2.8142,-4.8 2.7139,0 3.8945,2.678 2.1221,4.8135 -1.6938,2.041 -4.1505,2.0342 -4.9363,-0.014 z m -0.3858,-43.2 c 0,-1.1733 0.4241,-2.1333 0.9423,-2.1333 0.5182,0 1.1933,0.96 1.5001,2.1333 0.3626,1.3865 0.033,2.1333 -0.9422,2.1333 -0.8251,0 -1.5002,-0.96 -1.5002,-2.1333 z m -92.80001,-4.2667 c 0,-0.5866 0.48,-1.0666 1.06667,-1.0666 0.58667,0 1.06667,0.48 1.06667,1.0666 0,0.5867 -0.48,1.0667 -1.06667,1.0667 -0.58667,0 -1.06667,-0.48 -1.06667,-1.0667 z m -261.6,-14.2486 c -5.07656,-1.8553 -6.13333,-2.6708 -6.13333,-4.7332 0,-3.6691 1.51022,-5.8962 6.2041,-9.1491 4.65748,-3.2276 9.01889,-3.0473 10.89071,0.4502 1.37081,2.5614 1.3296,11.2771 -0.0657,13.8842 -1.34249,2.5084 -2.98098,2.4404 -10.89581,-0.4521 z m 243.46667,-25.4638 c 0,-0.8035 0.576,-2.0369 1.28,-2.7409 2.12878,-2.1288 4.23546,-1.5177 3.86085,1.12 -0.38069,2.6805 -5.14085,4.1814 -5.14085,1.6209 z m -12.07558,-25.32171 c -4.31854,-5.1323 -4.95444,-10.16721 -1.88153,-14.89776 2.46157,-3.78945 16.09044,7.01959 16.09044,12.76129 0,2.63175 -2.48738,4.34465 -7.23344,4.98124 -3.64222,0.48852 -4.44679,0.16039 -6.97547,-2.84477 z m -255.65775,-7.08972 c 0,-0.94809 1.07231,-6.22809 2.38291,-11.73333 2.63361,-11.06258 3.7106,-11.98196 8.66133,-7.39378 5.58221,5.17342 2.65821,14.92309 -5.785,19.28925 -3.89631,2.01486 -5.25924,1.97284 -5.25924,-0.16214 z m 223.24934,-33.94613 c -3.73397,-3.73397 -4.66387,-5.37095 -4.39298,-7.73333 0.34111,-2.9747 0.40618,-2.99904 8.85525,-3.31266 7.08843,-0.26312 8.73818,-0.006 9.86667,1.5372 2.26498,3.09756 1.65541,8.70868 -1.26314,11.62722 -3.98229,3.98231 -7.54226,3.40511 -13.0658,-2.11843 z m -59.78268,-32.72832 c -2.6445,-2.70082 -1.49715,-6.7301 3.24038,-11.37964 5.74247,-5.63581 9.83191,-6.11963 10.89296,-1.28875 1.01387,4.61616 -0.34112,9.42488 -3.17988,11.28489 -3.5022,2.29474 -9.33931,3.032 -10.95346,1.3835 z m 46.92114,-2.5647 c -2.4179,-2.06965 -4.70396,-4.73267 -5.08012,-5.91786 -0.80618,-2.54003 1.12042,-5.2525 3.73073,-5.2525 1.01411,0 4.12934,-1.21521 6.92272,-2.70046 8.15492,-4.33601 11.1737,-2.033 8.58969,6.553 -1.4833,4.92868 -6.23497,11.08079 -8.55839,11.08079 -0.66464,0 -3.18673,-1.69334 -5.60463,-3.76297 z m 62.67886,-16.50062 c 0,-4.06671 6.62564,-11.73641 10.13874,-11.73641 1.90872,0 2.56744,0.76545 3.09952,3.60171 1.33471,7.1146 -2.17641,11.33163 -9.4348,11.33163 -3.51414,0 -3.80346,-0.24318 -3.80346,-3.19693 z m -183.54871,-8.45436 c -1.74659,-1.74659 -3.11795,-4.26552 -3.11795,-5.72709 0,-2.1775 0.64641,-2.71406 3.90712,-3.2432 2.14892,-0.34872 5.71719,-2.08864 7.92947,-3.86649 2.37787,-1.9109 4.70134,-2.97189 5.68313,-2.59514 2.49704,0.9582 4.33526,8.20701 3.13899,12.37821 -1.93795,6.7572 -12.07287,8.5216 -17.54076,3.05371 z m 38.4,-2.13333 c -2.03905,-2.03904 -3.11795,-4.20844 -3.11795,-6.26939 0,-3.63889 1.3666,-5.02215 5.92238,-5.99457 2.75934,-0.58898 3.44986,-1.42087 4.52923,-5.45651 1.07407,-4.01583 1.68797,-4.76158 3.9197,-4.76158 3.49242,0 6.00723,3.96007 6.22327,9.7998 0.2286,6.17903 -1.98106,11.06277 -6.17932,13.65744 -4.75473,2.93858 -7.6319,2.69023 -11.29731,-0.97519 z m -76.11269,-7.49148 c -3.64706,-2.40415 -5.84744,-5.95169 -5.90079,-9.51347 -0.0368,-2.45567 0.12567,-2.50158 6.09553,-1.72249 7.48511,0.97685 7.11601,0.97686 13.33333,-4.2e-4 4.97549,-0.78208 5.06667,-0.74529 5.06667,2.04434 0,3.65746 -2.6487,8.76469 -5.27425,10.16985 -3.27141,1.7508 -9.92182,1.26262 -13.32049,-0.97781 z m 136.31958,-0.88096 c -4.08998,-3.313 -5.76171,-8.92604 -4.0145,-13.47919 1.04912,-2.73396 10.61448,-9.16375 13.63257,-9.16375 3.45627,0 7.05709,3.44072 7.05709,6.74331 0,5.01651 -3.39531,12.49709 -6.87784,15.15334 -4.05146,3.09021 -6.65855,3.2888 -9.79732,0.74629 z m -199.85818,-6.10961 c 0,-0.88 0.72,-1.6 1.6,-1.6 0.88,0 1.6,0.72 1.6,1.6 0,0.88 -0.72,1.6 -1.6,1.6 -0.88,0 -1.6,-0.72 -1.6,-1.6 z m -25.33942,-4.27585 c -2.9138,-2.08332 -5.95011,-7.65737 -5.21486,-9.57341 0.31266,-0.81476 3.32438,-1.70368 7.27718,-2.14786 4.42547,-0.4973 7.53422,-1.48452 9.04313,-2.87173 1.87275,-1.72172 2.71385,-1.89211 4.53333,-0.91834 5.90836,3.16205 -1.31595,14.94463 -10.20959,16.65147 -1.88995,0.36271 -3.92498,-0.0646 -5.42919,-1.14013 z m -25.19421,-5.97738 c -3.13288,-1.66853 -7.84781,-2.51655 -19.47529,-3.50278 -8.43792,-0.71569 -15.86281,-1.82239 -16.49974,-2.45932 -0.63694,-0.63694 -0.98706,-2.04905 -0.77805,-3.13804 0.346,-1.80266 1.75477,-2.00656 15.73231,-2.27692 14.65116,-0.28341 15.52742,-0.18072 19.18668,2.24854 2.10892,1.40004 5.41965,3.16237 7.35717,3.91629 2.8983,1.12776 3.46557,1.86371 3.2,4.15144 -0.41738,3.59569 -3.30432,3.94677 -8.72308,1.06079 z m 163.50786,-14.90587 c -1.64932,-1.64933 -2.04149,-2.95997 -1.51424,-5.0607 1.06507,-4.24356 2.55929,-5.51353 6.4871,-5.51353 5.72237,0 8.98625,1.99928 8.98625,5.50455 0,6.60255 -9.11562,9.91316 -13.95911,5.06968 z m -235.95957,-0.58181 c -1.49993,-1.49991 -0.68454,-2.52576 2.00756,-2.52576 1.73011,0 2.59035,0.49618 2.31162,1.33334 -0.51345,1.54207 -3.22183,2.28979 -4.31918,1.19242 z m 17.71951,-1.06014 c -0.36605,-0.9539 -0.11099,-3.26798 0.56681,-5.1424 1.75955,-4.86593 1.49391,-8.97687 -0.9244,-14.30636 -4.09691,-9.02878 -1.93054,-10.91138 7.05295,-6.12909 5.82519,3.10098 8.40401,2.61134 9.68005,-1.83797 1.92183,-6.70101 7.82376,-4.43517 7.82376,3.00363 0,5.45049 -2.24566,8.62547 -9.31305,13.16713 -3.20991,2.06275 -6.06271,5.06051 -7.73134,8.12421 -2.7272,5.00727 -5.89985,6.39115 -7.15478,3.12085 z m 127.04575,-0.42634 c -3.64253,-1.11603 -6.24391,-3.61913 -7.26907,-6.99441 -1.00009,-3.29275 3.15732,-4.71153 13.80601,-4.71153 h 9.01648 v 3.61516 c 0,1.98834 -0.84491,4.65858 -1.87757,5.93386 -2.17163,2.68185 -8.63535,3.70128 -13.67585,2.15692 z m -162.50169,-6.17188 c -4.22688,-0.65072 -7.68801,-3.46357 -7.33174,-5.95847 0.28447,-1.99214 1.13549,-2.27772 7.62924,-2.56015 7.59608,-0.33037 12.42427,1.41644 12.42427,4.49502 0,2.30874 -7.81192,4.77946 -12.72177,4.0236 z m 90.16845,-6.97782 c -2.29046,-0.67702 -5.14769,-2.5595 -6.3703,-4.19705 -3.39672,-4.54953 -1.52436,-6.43628 7.43636,-7.49352 4.55133,-0.53699 7.84129,-1.50093 8.63275,-2.52932 1.93359,-2.51244 6.52343,-0.96229 7.39149,2.49635 2.03796,8.11983 -7.39369,14.58971 -17.0903,11.72354 z m -119.54995,-3.41106 c -6.93491,-2.38412 -12.72471,-9.21291 -13.51913,-15.94518 -0.3026,-2.56443 0.0566,-3.26214 1.80844,-3.51281 1.56152,-0.22346 3.19648,1.09419 5.72292,4.6122 4.22411,5.88197 7.38086,7.64117 10.61019,5.91289 1.24062,-0.66395 2.55337,-2.39334 2.91723,-3.84307 0.71772,-2.85965 4.08329,-3.64026 5.0323,-1.16722 0.82129,2.14027 -1.26008,10.4732 -3.13284,12.54257 -2.33208,2.57692 -4.90636,2.9589 -9.43911,1.40062 z m -28.10425,-7.13428 c 0.35858,-2.5134 3.60741,-3.83769 5.28912,-2.15597 1.67564,1.67564 -0.22039,4.54507 -3.00324,4.54507 -2.11082,0 -2.55979,-0.46925 -2.28588,-2.3891 z m 48.16377,-7.82109 c -1.05704,-2.75458 1.11336,-5.25648 4.56001,-5.25648 2.71527,0 3.08374,0.38237 3.08374,3.2 0,2.832 -0.39951,3.23851 -3.474,3.53479 -2.4958,0.24053 -3.66991,-0.17573 -4.16975,-1.47831 z m 223.37709,-4.80859 c -3.17999,-1.85217 -2.19189,-5.51897 2.35358,-8.73399 2.29608,-1.62403 5.28583,-4.94041 6.64389,-7.36973 2.82521,-5.05382 5.1533,-6.84171 7.65755,-5.88074 1.38032,0.52968 1.74194,2.18124 1.73042,7.9031 -0.0192,9.55402 -0.73593,11.81518 -4.33471,13.67619 -3.45077,1.78446 -11.29432,2.01063 -14.05073,0.40517 z m -247.50907,-5.24789 c -0.46337,-1.77196 -0.0328,-2.13333 2.54226,-2.13333 2.38903,0 3.10014,0.48934 3.10014,2.13333 0,1.53661 -0.71111,2.13333 -2.54226,2.13333 -1.64519,0 -2.73912,-0.75278 -3.10014,-2.13333 z m 48.30907,-1.06667 c 0,-1.42222 0.71111,-2.13333 2.13333,-2.13333 1.42222,0 2.13333,0.71111 2.13333,2.13333 0,1.42222 -0.71111,2.13334 -2.13333,2.13334 -1.42222,0 -2.13333,-0.71112 -2.13333,-2.13334 z m 163.2,-2.44722 c -1.4858,-0.75169 -2.66667,-2.27987 -2.66667,-3.45094 0,-1.63972 0.8384,-2.17217 3.81332,-2.42176 3.34733,-0.28083 4.09954,-0.90903 6.15541,-5.14063 3.36913,-6.93468 5.92482,-6.14878 6.34963,1.95256 0.26033,4.96469 -0.0799,6.46954 -1.86667,8.2563 -2.49681,2.49681 -7.73338,2.85426 -11.78502,0.80447 z m -92.12282,-10.4302 c -1.59094,-1.25143 -2.81052,-3.2828 -2.81052,-4.68129 0,-2.0135 0.73998,-2.60604 4,-3.20307 2.2,-0.4029 6.10046,-1.89632 8.66768,-3.31872 6.182,-3.42518 8.66566,-3.38692 8.66566,0.13347 0,2.9219 -2.43798,8.38454 -5.09396,11.4137 -2.34456,2.67401 -9.83601,2.48206 -13.42886,-0.34409 z m -41.0122,-1.01912 c -2.8065,-1.71107 -3.46598,-2.74444 -3.2,-5.01427 0.30662,-2.61674 0.91657,-2.96371 7.19737,-4.09424 5.16286,-0.92931 7.46164,-1.93192 9.28217,-4.04842 1.3309,-1.54725 3.45626,-2.81319 4.72302,-2.81319 2.0758,0 2.23356,0.39495 1.59775,4 -0.38801,2.2 -1.20141,5.56835 -1.80757,7.48521 -2.01611,6.37574 -10.98384,8.63617 -17.79274,4.48491 z m 92.49276,-10.94594 c -2.40119,-1.61817 -3.62441,-3.28891 -3.62441,-4.95042 0,-3.02193 1.6689,-4.03465 8,-4.85451 4.63603,-0.60035 4.87287,-0.8117 6.93333,-6.18708 1.74713,-4.55795 2.59398,-5.56551 4.67782,-5.56551 1.57299,0 2.8427,0.81451 3.32558,2.13334 1.07027,2.92306 -1.10965,10.85999 -4.6349,16.87536 -2.6716,4.55875 -3.27728,4.9913 -6.98905,4.9913 -2.4691,0 -5.48633,-0.95852 -7.68837,-2.44248 z m -120.50135,-7.91928 c -8.07155,-6.79176 -12.3171,-16.3049 -7.27657,-16.3049 1.23556,0 3.19795,1.20959 4.36085,2.68798 2.84712,3.61954 7.41895,5.84535 12.00636,5.84535 3.12194,0 3.7863,0.38873 3.7863,2.21538 0,2.55557 -5.46656,8.45129 -7.83611,8.45129 -0.88011,0 -3.14849,-1.3028 -5.04083,-2.8951 z m 192.64181,0.4613 c -5.0882,-2.88185 -9.0982,-8.47527 -9.0982,-12.69076 0,-4.00256 2.24279,-4.77274 7.13632,-2.45061 l 3.91904,1.8597 3.10911,-3.87559 c 3.93769,-4.90845 7.50944,-5.17378 9.80813,-0.72858 2.93599,5.67758 1.77739,16.98177 -1.99895,19.50331 -2.31146,1.54339 -8.71495,0.73896 -12.87545,-1.61747 z M 592.70155,746.88021 c -3.10672,-1.25172 -4.80451,-4.66322 -4.40029,-8.84184 0.31987,-3.30672 0.48806,-3.41562 5.19442,-3.36305 5.78784,0.0646 12.73615,3.86501 12.73615,6.966 0,5.01815 -7.17905,7.79786 -13.53028,5.23889 z m 74.94471,-7.81448 c -2.87063,-2.87062 -3.71056,-7.10164 -1.41443,-7.12492 0.73333,-0.007 3.97333,-1.33223 7.2,-2.94401 3.22666,-1.61176 6.94666,-2.7723 8.26666,-2.57896 2.06424,0.30235 2.4,0.99615 2.4,4.95917 0,6.3458 -2.50854,9.17453 -8.76099,9.87928 -4.29298,0.48388 -5.30504,0.19564 -7.69124,-2.19056 z m -49.60368,-25.92192 c -2.45688,-3.12341 -2.93456,-7.68034 -0.87742,-8.37029 0.73333,-0.24597 3.37995,-0.97118 5.88135,-1.6116 3.49663,-0.89522 5.2017,-2.15216 7.37562,-5.43717 2.02924,-3.06638 3.45563,-4.18303 5.05198,-3.95494 1.80568,0.25802 2.28748,1.19884 2.55956,4.99819 0.42615,5.95042 -1.24714,9.96123 -5.83706,13.99123 -4.89514,4.29799 -10.94642,4.46241 -14.15403,0.38458 z m -221.94409,-9.36736 c 0,-0.83116 3.87026,-4.22317 8.60058,-7.53778 4.73031,-3.31463 11.2154,-8.39458 14.4113,-11.2888 3.19589,-2.89422 6.40563,-5.24114 7.13275,-5.21539 4.43138,0.15693 13.58871,5.21336 13.58871,7.50332 0,0.45073 -1.26524,2.32316 -2.81163,4.16094 -3.40645,4.04833 -14.75863,9.9318 -23.56803,12.21455 -8.35316,2.16452 -17.35368,2.24914 -17.35368,0.16316 z m 159.29824,-11.8764 c -0.73432,-1.91363 3.05578,-6.36407 7.30086,-8.57286 3.86079,-2.00882 6.40325,-0.90747 5.99194,2.59562 -0.6098,5.19361 -11.68283,10.17272 -13.2928,5.97724 z m 19.82756,-2.16846 c -1.0134,-1.22108 -1.09334,-2.18211 -0.28834,-3.46667 2.34298,-3.7388 8.89588,-2.28576 8.89588,1.97256 0,3.32125 -6.19823,4.39715 -8.60754,1.49411 z m -174.84912,-3.9106 c 0.0353,-4.70494 15.57345,-24.26666 19.27531,-24.26666 1.1264,0 2.04801,0.49912 2.04801,1.10916 0,2.91067 -5.25212,10.7852 -11.53256,17.29084 -6.63111,6.86887 -9.8126,8.77524 -9.79076,5.86666 z m -11.06937,-9.10577 c -1.05521,-1.70737 1.3893,-8.34317 4.8433,-13.14745 5.91178,-8.22295 12.82905,-15.88011 14.34563,-15.88011 2.66294,0 1.54546,4.88692 -2.22376,9.72489 -2.0318,2.60791 -5.52046,8.08668 -7.75255,12.17505 -2.80601,5.13956 -4.76197,7.5345 -6.3385,7.76106 -1.25407,0.18022 -2.54742,-0.10485 -2.87412,-0.63344 z m 43.05936,-72.76089 c 0,-1.37482 0.54017,-2.13105 1.33333,-1.86667 0.73334,0.24445 1.33334,1.08445 1.33334,1.86667 0,0.78222 -0.6,1.62222 -1.33334,1.86666 -0.79316,0.26439 -1.33333,-0.49185 -1.33333,-1.86666 z m -37.68889,-43.37778 c -1.14107,-1.14107 -0.81986,-9.31721 0.52106,-13.26306 1.8415,-5.41885 6.44513,-11.56084 9.2175,-12.29766 1.34732,-0.35807 2.64492,-0.4558 2.88355,-0.21717 0.23863,0.23863 -0.68836,3.53627 -2.05997,7.3281 -1.37162,3.79183 -3.06324,9.65423 -3.75917,13.02757 -1.09062,5.28651 -1.59852,6.13333 -3.67859,6.13333 -1.3273,0 -2.73327,-0.32 -3.12438,-0.71111 z m 204.28797,-35.82222 c 0.25618,-2.65702 0.89479,-3.54628 2.73425,-3.80752 2.10431,-0.29886 2.4,0.12824 2.4,3.46666 0,3.37534 -0.31035,3.80752 -2.73425,3.80752 -2.44224,0 -2.69855,-0.37022 -2.4,-3.46666 z m -112.0066,-16 c 0.50803,-3.57711 13.81361,-10.47565 19.53165,-10.12658 3.08012,0.18804 4.35541,0.77625 4.61165,2.12708 0.45611,2.40457 -15.60129,10.3995 -20.88687,10.3995 -3.1204,0 -3.5521,-0.31817 -3.25643,-2.4 z m 50.65932,-23.96713 c -1.81426,-2.93554 11.68471,-12.03287 17.85483,-12.03287 9.75748,0 -1.23348,10.85948 -12.56258,12.41231 -2.56647,0.35177 -4.94577,0.18119 -5.29225,-0.37944 z m 25.23684,-23.31218 c -0.45486,-1.18534 -0.15401,-2.26143 0.7877,-2.81744 0.83802,-0.49477 4.13768,-2.44542 7.33258,-4.33476 4.42627,-2.61752 6.45738,-4.70001 8.53333,-8.74918 3.4351,-6.70021 8.40513,-10.15265 14.61549,-10.15265 5.71291,0 5.94834,1.42135 1.51555,9.1497 -5.49262,9.57613 -15.78404,16.47374 -26.99434,18.09238 -4.28752,0.61908 -5.16602,0.43882 -5.79031,-1.18805 z m 46.57803,-46.2102 c 0,-4.14128 6.44771,-9.97424 10.50614,-9.50443 2.45762,0.28449 2.82719,0.81528 2.82719,4.0606 0,3.35026 -0.48835,3.9796 -4.75935,6.13334 -6.58334,3.31978 -8.57398,3.1597 -8.57398,-0.68951 z m 13.16372,-22.03453 c -1.65445,-4.31143 8.67469,-17.54263 13.69494,-17.54263 4.65284,0 0.61581,12.69379 -5.39918,16.97684 -3.69353,2.63003 -7.40647,2.88327 -8.29576,0.56579 z M 516.09849,249.91243 c -1.17333,-0.48846 -4.77333,-1.23287 -8,-1.65424 -3.22666,-0.42137 -8.70334,-2.16211 -12.17036,-3.86833 -3.46704,-1.70621 -6.94704,-3.1022 -7.73334,-3.1022 -0.7863,0 -1.42963,-0.41945 -1.42963,-0.9321 0,-0.51265 -2.61677,-3.86475 -5.81504,-7.44913 -6.79798,-7.61863 -7.521,-10.23078 -6.27766,-22.68017 0.49098,-4.91623 0.5848,-11.8186 0.20847,-15.3386 -0.37632,-3.52 -0.73632,-10.56317 -0.8,-15.65149 -0.10667,-8.52134 0.10581,-9.51477 2.69112,-12.58729 2.40701,-2.86058 3.28077,-3.23459 6.13333,-2.62534 4.6764,0.99879 5.9188,2.29036 6.65962,6.92322 l 0.64741,4.04872 8.14304,0.70509 c 13.28727,1.15051 14.98124,1.90396 25.13656,11.1803 9.04104,8.2585 9.52289,8.54012 14.61217,8.54012 6.85429,0 11.53876,-2.04219 16.57412,-7.22547 4.96071,-5.10643 14.42133,-10.08633 18.30785,-9.63692 2.33364,0.26985 2.90491,0.9406 3.17486,3.7278 0.64929,6.70382 -4.49839,13.1501 -12.22956,15.31469 -2.64956,0.74183 -7.99338,3.43479 -11.87515,5.98435 -7.80024,5.12321 -7.371,5.06276 -24.98048,3.51778 l -12.48935,-1.09576 -5.64399,3.70609 c -3.10419,2.03836 -8.88399,5.02159 -12.84399,6.62942 -4.91912,1.99724 -7.2,3.49779 -7.2,4.73673 0,2.77456 1.93145,3.77315 11.2,5.79057 10.73605,2.33684 11.41446,2.7133 14.94441,8.29296 1.97502,3.12183 4.92751,5.70925 9.24225,8.09945 8.26975,4.58112 8.20474,6.99468 -0.19702,7.31475 -3.22096,0.1227 -6.8163,-0.17655 -7.98964,-0.665 z m -18.74408,-55.16862 c 1.21591,-1.54578 2.21075,-3.70578 2.21075,-4.8 0,-3.03842 -8.00483,-2.83675 -9.65317,0.2432 -3.32473,6.21232 3.06352,10.12368 7.44242,4.5568 z M 945.43183,1323.9544 c 0,-0.5867 -0.44075,-1.0667 -0.97943,-1.0667 -0.53869,0 -1.73869,-0.2913 -2.66666,-0.6475 -1.10719,-0.4248 -1.68725,-0.058 -1.68725,1.0667 0,1.1173 0.9285,1.7141 2.66667,1.7141 1.46667,0 2.66667,-0.48 2.66667,-1.0666 z m 20.3881,-14.0631 c 5.05462,-2.8408 5.24906,-4.7674 0.67856,-6.7236 -3.28347,-1.4053 -3.61595,-1.3322 -6.29176,1.3849 -1.5538,1.5776 -3.14615,3.9484 -3.53855,5.2684 -0.61521,2.0696 -0.31965,2.4 2.14654,2.4 1.57299,0 4.72533,-1.0484 7.00521,-2.3297 z m -123.85477,-41.785 c 6.78353,-3.2795 6.94043,-3.45 7.26148,-7.8883 0.29313,-4.0523 0.0297,-4.6499 -2.46984,-5.6002 -3.39291,-1.2899 -5.60823,-0.2696 -9.52758,4.3883 -3.0537,3.6291 -6.99739,10.793 -6.99739,12.7109 0,1.5345 3.0004,0.6112 11.73333,-3.6107 z m 34.13333,-17.7854 c 0,-2.9863 -2.69012,-3.7459 -5.8749,-1.6592 -3.83167,2.5106 -3.27874,3.826 1.60824,3.826 3.57752,0 4.26666,-0.35 4.26666,-2.1668 z m 188.63671,-11.1928 c 4.6655,-3.9257 13.3005,-15.9552 17.6054,-24.5259 4.5545,-9.0681 7.4208,-17.7401 9.2543,-27.9999 0.7608,-4.2574 2.0967,-8.335 2.9685,-9.0611 0.8719,-0.726 5.234,-1.5602 9.6935,-1.8535 l 8.1083,-0.5333 0.5333,-7.4667 c 0.2934,-4.1067 0.1247,-10.5867 -0.3746,-14.4 -1.3074,-9.9826 -0.097,-50.2994 1.7588,-58.5966 2.8239,-12.6239 10.9499,-14.3879 20.4154,-4.432 1.7231,1.8124 4.0673,3.2953 5.2095,3.2953 1.9918,0 2.0532,-0.6638 1.5054,-16.2667 -0.3711,-10.5733 -1.1807,-18.2216 -2.3131,-21.8521 -2.0935,-6.7126 -11.8851,-21.5628 -20.7907,-31.5322 -5.4919,-6.1479 -6.4773,-7.8613 -6.4773,-11.2628 0,-5.7693 1.9776,-7.7474 11.3799,-11.3828 7.0683,-2.73288 8.3951,-3.63542 8.6242,-5.86662 0.2006,-1.95164 -3.4609,-7.62618 -14.0901,-21.83685 -14.7743,-19.75262 -18.9148,-26.68317 -20.7835,-34.78897 -1.9463,-8.44266 -1.3784,-12.23209 3.1975,-21.33297 2.3803,-4.73436 4.1803,-9.64371 4,-10.90966 -0.2949,-2.06917 -1.1902,-2.372 -8.8614,-2.99711 -4.6933,-0.38245 -18.4933,-1.0436 -30.6666,-1.46921 l -22.1334,-0.77385 v 2.32219 c 0,4.06514 3.0604,8.44175 9.0823,12.98831 3.2181,2.42966 5.8511,4.53889 5.8511,4.68717 0,0.14826 -0.9669,2.45527 -2.1486,5.12666 l -2.1485,4.85709 5.9272,18.47851 c 8.5956,26.79755 15.1338,54.43691 16.4971,69.73941 3.3558,37.6659 3.1055,95.4542 -0.5238,121.0058 -3.9565,27.8546 -7.7306,42.2242 -16.8671,64.2207 -6.7564,16.2661 -7.6173,19.5293 -7.2914,27.6354 0.3448,8.5759 7.542,12.0992 13.8584,6.7843 z m -181.94816,-5.8384 c 2.93284,-2.307 6.38479,-10.8485 5.41043,-13.3877 -0.69053,-1.7995 -4.95917,-3.1264 -7.24082,-2.2509 -2.25316,0.8647 -4.89694,6.5354 -5.84604,12.5393 -0.81917,5.182 -0.79994,5.2306 2.07001,5.2306 1.59325,0 4.11615,-0.9591 5.60642,-2.1313 z m 27.24721,-14.1353 c 0.41514,-2.1892 -2.92223,-2.5869 -4.92242,-0.5867 -2.09271,2.0927 -1.46965,3.1503 1.64421,2.7908 1.76368,-0.2035 3.0647,-1.0783 3.27821,-2.2041 z m -29.13576,-15.2162 c 17.82236,-3.7695 30.95384,-13.0298 45.42839,-32.0361 l 7.37161,-9.6795 -0.006,-12.7342 c -0.007,-14.9718 -1.98835,-29.2973 -6.36646,-46.0395 -2.47435,-9.4621 -5.25789,-16.2174 -12.7722,-30.9967 -17.55772,-34.5328 -29.8554,-53.0708 -47.33535,-71.3552 -18.11622,-18.94987 -38.40488,-33.47253 -63.11969,-45.18114 -7.04,-3.33519 -13.627,-6.35088 -14.63778,-6.70153 -2.43909,-0.84615 -7.81031,3.74049 -10.45797,8.93033 -5.60449,10.98571 -10.5179,37.98037 -9.05479,49.74784 0.66265,5.3296 0.85672,5.5993 5.15289,7.1625 2.45537,0.8933 5.66431,1.7612 7.13098,1.9285 2.58854,0.2953 2.66433,0.5386 2.58704,8.3042 -0.0704,7.068 -0.64896,9.3048 -4.96649,19.2 -6.4024,14.6734 -8.53961,21.2492 -7.8279,24.0849 0.49779,1.9833 1.81277,2.5085 9.13186,3.6471 8.18364,1.273 8.68756,1.5167 11.75028,5.6813 5.0674,6.8906 7.09531,13.8505 7.79406,26.7495 0.3465,6.3961 1.11734,12.1168 1.713,12.7124 0.7329,0.7329 2.42717,0.6803 5.241,-0.1628 9.89236,-2.9638 18.86572,-0.2566 20.04855,6.0485 0.38289,2.0409 -0.3372,15.0485 -1.60021,28.9056 -2.11311,23.184 -2.16549,25.6356 -0.6564,30.7173 2.36846,7.9755 6.91932,12.2571 15.98521,15.0397 4.10667,1.2604 9.38667,3.4505 11.73333,4.867 5.2109,3.145 16.17879,3.6037 27.73334,1.16 z m -70.61355,-25.3172 c -0.4026,-10.014 -0.0657,-17.696 1.15601,-26.3571 2.43095,-17.2343 2.72698,-16.0429 -3.98599,-16.0429 -3.14061,0 -8.61387,-0.3034 -12.16282,-0.6744 l -6.45264,-0.6745 -0.7144,-15.5922 c -0.39293,-8.5757 -1.19688,-17.1522 -1.78656,-19.0589 -1.62901,-5.2672 -4.90315,-4.6449 -9.87692,1.8772 -2.29472,3.009 -5.27528,5.645 -6.82187,6.0331 -3.66239,0.9193 -9.57962,-2.3408 -12.70823,-7.0014 -3.75861,-5.599 -3.44694,-20.2013 0.77378,-36.2522 3.94028,-14.9844 4.00088,-16.9357 0.56654,-18.2415 -1.44466,-0.5492 -4.56466,-2.2811 -6.93334,-3.8486 -5.48071,-3.627 -5.51787,-5.373 -0.46762,-21.9711 3.42237,-11.248 3.79863,-13.6488 3.46666,-22.11895 -0.20481,-5.22578 -0.61238,-9.73519 -0.90571,-10.02092 -0.29334,-0.28572 -1.47818,-0.68512 -2.633,-0.88756 -4.32196,-0.75764 -16.01179,21.14663 -20.86603,39.09863 -5.8606,21.6736 -2.89083,65.4873 6.14403,90.6442 6.98946,19.4616 16.1932,33.6371 32.23694,49.6509 13.86065,13.8348 21.22262,19.2607 31.1197,22.9359 11.97575,4.4471 11.51224,4.9382 10.85147,-11.4977 z m 137.08774,-83.1164 c -0.50249,-3.415 -3.00752,-3.7806 -3.00752,-0.4391 0,1.7925 0.5851,2.7555 1.67419,2.7555 1.11183,0 1.55969,-0.7781 1.33333,-2.3164 z m -821.05511,-9.8956 c 2.38264,-5.3864 5.849,-28.3987 6.93624,-46.048 0.64354,-10.4468 0.4955,-12.2581 -1.24234,-15.2 -1.08512,-1.837 -2.24951,-3.34 -2.58754,-3.34 -0.33802,0 -2.75454,2.1996 -5.37001,4.8881 -2.61549,2.6884 -6.67543,5.8716 -9.02209,7.0739 -7.17974,3.6783 -19.50611,12.5946 -23.45666,16.9674 -2.5004,2.7677 -3.74334,5.1899 -3.74334,7.2949 0,3.3224 0.24416,3.5642 13.45405,13.321 3.5864,2.6489 9.58639,8.1474 13.33333,12.219 3.74694,4.0716 7.4396,7.4402 8.20593,7.486 0.76632,0.046 2.33792,-2.0524 3.49243,-4.6623 z m -18.30092,-58.8161 c 3.38798,-2.8508 4.34013,-5.7719 1.88141,-5.7719 -1.72217,0 -7.1329,5.5059 -7.1329,7.2584 0,1.9923 1.68355,1.5157 5.25149,-1.4865 z m 576.41863,-90.17186 c 4.07635,-2.09946 7.12988,-5.4963 7.12988,-7.93153 0,-1.98294 -0.77535,-2.4759 -4.85694,-3.08796 -4.0956,-0.61418 -5.93483,-0.22395 -11.73333,2.4895 -7.43208,3.47789 -8.9224,6.28385 -4.4764,8.42809 3.19446,1.54062 11.03206,1.59793 13.93679,0.10186 z M 1021.577,855.25979 c 3.4863,-7.3469 1.1617,-10.56651 -6.8118,-9.43425 -7.1851,1.0203 -8.431,4.79524 -3.282,9.94417 4.3157,4.3158 7.8895,4.13525 10.0938,-0.50992 z m 132.9215,-48.05436 c 0,-0.85189 -2.1955,-4.68964 -4.8789,-8.52833 -5.535,-7.91782 -8.0239,-14.27404 -10.6317,-27.15162 -4.8494,-23.94616 1.6317,-62.30164 14.9777,-88.63869 2.3898,-4.71587 2.4819,-5.36442 0.9763,-6.86997 -2.5662,-2.56632 -9.6732,-2.08214 -14.9659,1.0196 -7.9112,4.63627 -38.5862,12.15735 -61.0331,14.96446 -5.5098,0.68903 -5.6776,0.63345 -5.3333,-1.76531 0.2471,-1.72116 1.3318,-2.7271 3.5556,-3.29749 1.76,-0.45143 9.44,-2.30863 17.0667,-4.12711 16.7916,-4.00377 44.3224,-12.99629 58.1333,-18.9884 10.6576,-4.62398 16.353,-5.43976 19.7962,-2.8355 3.4961,2.64433 6.0093,2.08022 5.6135,-1.25998 -0.3052,-2.57397 0.1867,-3.07859 4.4483,-4.56455 2.6353,-0.91885 4.9383,-2.43295 5.1177,-3.36466 0.5333,-2.76928 -8.2446,-6.24355 -15.7747,-6.24355 -5.9792,0 -7.815,0.69706 -26.6094,10.1042 -37.1005,18.56974 -61.2976,24.35477 -108.0025,25.82116 -23.9294,0.75131 -25.1539,0.43826 -28.2154,-7.21336 -1.2562,-3.13957 -2.8762,-4.86397 -6.1084,-6.5023 -5.41922,-2.74691 -5.96183,-3.54369 -5.98234,-8.78446 -0.0121,-3.09543 1.50059,-6.89053 5.85104,-14.67928 9.758,-17.46968 17.2177,-28.94357 21.3766,-32.8793 l 3.945,-3.73333 -0.4867,5.33333 c -0.3334,3.65346 -2.9421,10.63232 -8.2821,22.1568 -4.2875,9.25291 -7.5364,17.0825 -7.2198,17.3991 0.9364,0.93636 7.993,-5.78468 10.5313,-10.03049 3.4233,-5.72604 6.3753,-8.72541 8.5876,-8.72541 1.6258,0 1.9474,0.88086 1.9474,5.33334 v 5.33333 h 4.8 c 7.5618,0 6.3125,2.56729 -5.8666,12.05581 -5.8667,4.5706 -10.6667,8.93592 -10.6667,9.70072 0,3.37041 40.5812,2.68767 60.8,-1.0229 19.4798,-3.57495 45.7536,-11.5362 51.4667,-15.59495 4.5055,-3.20087 3.9264,-6.93032 -1.9644,-12.64992 -5.5289,-5.36824 -12.9512,-15.38939 -16.2545,-21.946 -5.4842,-10.88487 -5.8932,-42.26937 -1.1852,-90.94455 2.4661,-25.49651 3.2658,-39.26227 3.2757,-56.38599 0.011,-12.45994 -0.2163,-23.49994 -0.4967,-24.53333 -0.2805,-1.03339 -0.8037,-3.19889 -1.1628,-4.81222 -0.9193,-4.13108 -3.1001,-3.65062 -6.9032,1.52092 -3.3026,4.49076 -4.5337,7.41336 -8.4577,20.07908 -1.1815,3.81333 -5.9433,15.33333 -10.5819,25.6 -4.6386,10.26666 -10.5033,23.61912 -13.0325,29.67212 -4.6121,11.03751 -7.8458,14.97675 -11.2286,13.67864 -0.8845,-0.33944 -1.6082,-1.59377 -1.6082,-2.78742 0,-1.19365 4.773,-13.86119 10.6068,-28.15008 15.2542,-37.36285 29.5508,-74.21508 30.4718,-78.5466 2.7324,-12.85137 9.8291,-31.54595 17.0067,-44.8 8.1904,-15.12425 13.3813,-25.20947 13.3813,-25.99801 0,-0.25791 -0.9609,-0.21762 -2.1355,0.0895 -1.1745,0.30715 -5.9969,4.63779 -10.7165,9.62365 -6.9485,7.34059 -9.5686,11.12169 -13.7722,19.87502 -7.7377,16.11219 -12.4416,28.41935 -16.0958,42.11199 -12.7015,47.59359 -35.3578,97.22852 -71.0484,155.65114 -21.56605,35.30189 -33.4877,51.44672 -37.98923,51.44672 -1.08905,0 -3.24671,-1.50527 -4.79477,-3.34503 -1.54807,-1.83978 -4.37977,-3.99899 -6.29266,-4.79824 -3.72363,-1.55583 -5.68828,-4.24105 -5.68828,-7.77451 0,-4.27325 8.8414,-29.5713 14.0083,-40.08222 5.42825,-11.04257 7.95951,-19.96035 15.43791,-54.3888 2.0376,-9.3805 4.13353,-17.48423 4.65753,-18.0083 1.6303,-1.6303 4.3253,0.20592 5.9264,4.03803 1.4023,3.35597 1.2682,4.98168 -1.5627,18.94833 -4.0114,19.79088 -8.89202,39.04007 -13.56606,53.50472 -2.05461,6.35834 -3.47865,11.81765 -3.16452,12.13177 2.46925,2.46925 9.25565,-9.43774 10.67958,-18.73771 1.2209,-7.97383 6.5059,-16.1547 10.4362,-16.1547 2.3805,0 2.5625,3.67104 0.529,10.66666 -1.3816,4.75307 -1.2838,8.53334 0.2207,8.53334 2.7981,0 9.4405,-10.43724 21.143,-33.2221 19.6558,-38.27027 27.7437,-57.53754 41.4824,-98.82105 10.7101,-32.18269 12.1706,-37.43621 12.1577,-43.73333 -0.02,-9.85136 -0.6144,-11.38811 -5.691,-14.71345 -19.3545,-12.6778 -42.6251,-41.1121 -58.5795,-71.57799 -5.9164,-11.29783 -8.2534,-14.80879 -10.0249,-15.06115 -2.1617,-0.30793 -2.333,0.17158 -2.6667,7.46667 -0.4075,8.90775 0.3306,22.15976 2.7216,48.8624 2.6731,29.85462 4.1427,74.94137 3.3549,102.93333 -0.7927,28.169 -1.2943,30.4 -6.8349,30.4 h -3.0193 l 0.514,-38.13333 c 0.4954,-36.76432 -0.5456,-65.10001 -3.0467,-82.93154 -1.2883,-9.18461 -4.976,-21.86846 -6.35811,-21.86846 -0.56183,0 -1.02402,0.6 -1.02711,1.33333 -0.0161,3.82983 -3.3836,93.06683 -4.82019,127.73333 -1.90595,45.99286 -2.96931,54.40694 -10.11031,80 -2.86462,10.26667 -5.72234,20.66193 -6.35049,23.1006 -0.66039,2.56386 -3.07646,6.61278 -5.72848,9.6 -2.52252,2.84133 -6.89891,9.48607 -9.72531,14.76607 -2.82641,5.28 -7.99756,14.16 -11.49144,19.73333 -15.02908,23.97391 -21.01328,30.93401 -44.25969,51.47759 -9.90966,8.75749 -11.10746,10.2273 -13.28691,16.30428 -2.1845,6.09109 -2.75317,6.78628 -6.4595,7.89673 -4.75005,1.42315 -10.48324,6.16523 -13.65144,11.29147 -7.18728,11.62927 -3.93607,20.20383 10.15604,26.78503 8.91981,4.16566 13.51293,3.52099 23.90433,-3.3551 9.47213,-6.26778 12.84042,-7.05321 18.25036,-4.25562 4.02972,2.08385 5.31198,4.61123 5.31198,10.47013 0,4.14287 -0.62629,5.45134 -4.86653,10.16752 -4.22021,4.6939 -4.82228,5.9442 -4.53333,9.41439 0.41712,5.00959 5.47523,8.87025 11.62149,8.87025 6.71509,0 9.05679,-1.60998 17.93662,-12.33198 4.68606,-5.6582 10.50656,-11.74849 12.93444,-13.53397 4.32576,-3.1812 4.48215,-3.21123 7.79415,-1.49677 1.85891,0.96226 4.19337,2.33338 5.1877,3.04693 1.4513,1.04149 3.76546,0.82903 11.73333,-1.07726 8.40409,-2.01065 12.86843,-2.36871 29.1255,-2.33601 31.047,0.0624 35.3655,1.23077 50.2713,13.60003 10.9763,9.10844 21.2059,15.1957 25.5365,15.1957 2.7036,0 3.6977,-0.69585 5.3334,-3.73334 1.1058,-2.05333 2.7415,-3.73332 3.6347,-3.7333 2.4854,4e-5 6.5564,5.85408 12.2354,17.59449 7.9285,16.39066 19.4011,26.71026 36.844,33.1412 5.0329,1.85559 7.478,1.84972 7.478,-0.0179 z m -68.6222,-62.09555 c -1.4556,-1.45569 -0.6373,-2.6264 1.6054,-2.29641 2.9313,0.43133 3.9166,3.00752 1.1502,3.00752 -1.1245,0 -2.3645,-0.32 -2.7556,-0.71111 z m -13.5111,-6.54403 c -1.4667,-0.22928 -8.4267,-3.07963 -15.4667,-6.3341 -15.5772,-7.20109 -27.1798,-12.20221 -38.1323,-16.43632 -6.6265,-2.56171 -8.3975,-3.72047 -8.9302,-5.84284 -1.0991,-4.37927 0.4024,-10.13931 3.6972,-14.18289 l 3.1088,-3.81537 16.3949,0.20528 c 20.0421,0.25094 24.4082,1.37619 26.1209,6.73193 0.6811,2.12972 2.2825,4.23674 3.7333,4.91209 11.4807,5.34393 13.2298,6.44055 13.5212,8.47728 0.3048,2.13047 -0.054,2.18013 -12.5333,1.73519 -10.7931,-0.38481 -12.8471,-0.20765 -12.8471,1.1081 0,1.96231 2.2777,3.91115 9.0666,7.7575 7.6355,4.32596 17.6,12.15088 17.6,13.82085 0,1.76298 -1.847,2.4083 -5.3333,1.8633 z m -131.46595,-9.54486 c -3.2807,-3.43892 -5.06742,-7.69448 -5.06742,-12.06944 0,-3.05097 0.13736,-3.13056 5.40345,-3.13056 6.71542,0 8.98631,1.1727 10.46061,5.40189 0.90126,2.58535 0.79961,4.16447 -0.46251,7.18514 -2.67954,6.41304 -5.92584,7.23386 -10.33413,2.61297 z m 1.33258,-32.71111 c 0,-0.92889 0.76,-1.68889 1.68888,-1.68889 0.9289,0 1.49889,0.57 1.26667,1.26667 -0.65928,1.97783 -2.95555,2.30588 -2.95555,0.42222 z m 97.06667,-118.48889 c 0,-1.59009 0.4593,-2.5087 1.0667,-2.13333 0.5867,0.36258 1.0667,1.32258 1.0667,2.13333 0,0.81076 -0.48,1.77076 -1.0667,2.13334 -0.6074,0.37537 -1.0667,-0.54325 -1.0667,-2.13334 z M 417.21849,785.07433 c 0.704,-0.704 1.28,-2.768 1.28,-4.58667 0,-4.03485 -1.66529,-5.86667 -5.33333,-5.86667 -3.66804,0 -5.33333,1.83182 -5.33333,5.86667 0,4.03485 1.66529,5.86667 5.33333,5.86667 1.52533,0 3.34933,-0.576 4.05333,-1.28 z m 493.09538,-40.23796 c 4.05831,-4.05829 4.08141,-6.48204 0.0618,-6.48204 -5.32714,0 -10.77547,6.07948 -7.96606,8.88888 1.5729,1.57291 4.95409,0.54335 7.90426,-2.40684 z m -450.21538,-7.01538 c 0,-0.88038 -0.94442,-1.6 -2.09986,-1.6 -1.4283,0 -1.9035,0.51169 -1.48588,1.6 0.3377,0.88 1.28263,1.6 2.09987,1.6 0.81722,0 1.48587,-0.72 1.48587,-1.6 z m 22.93334,-4.34095 c 0,-1.1164 -0.84,-2.1916 -1.86667,-2.38932 -1.87725,-0.36152 -2.70244,2.87228 -1.13333,4.44139 1.26018,1.26018 3,0.0701 3,-2.05207 z m 300.26666,-63.50949 c 0,-1.23775 -2.34876,-4.82037 -5.2195,-7.96141 -13.5291,-14.80299 -14.62701,-28.7971 -3.92705,-50.05481 7.39278,-14.68729 9.8438,-21.82106 11.3272,-32.96809 1.27057,-9.54784 0.21079,-21.38374 -2.83224,-31.63071 -3.18975,-10.74108 1.34835,-11.60394 10.79927,-2.05337 7.45466,7.53325 7.79528,7.27819 7.91068,-5.92373 0.14182,-16.22272 -5.13968,-28.87306 -17.52502,-41.97626 -5.22751,-5.5305 -9.38594,-8.8111 -13.86667,-10.93946 -3.52,-1.67202 -6.98503,-3.04042 -7.70007,-3.04087 -0.71504,-4.6e-4 -4.73766,-2.2246 -8.93914,-4.94253 -4.20148,-2.71793 -11.53645,-6.61747 -16.29993,-8.66566 -9.84726,-4.23408 -11.32753,-5.20855 -11.32753,-7.45703 0,-1.3377 1.45713,-1.51951 8.8,-1.09801 6.6679,0.38277 12.03048,1.61663 22.13334,5.09263 8.86143,3.04888 15.29467,4.62364 19.18123,4.69529 l 5.84791,0.1078 3.0198,-5.6 c 4.50634,-8.35671 7.98316,-7.34741 11.94192,3.46666 2.63105,7.18722 15.69225,20.73386 23.30744,24.1737 4.63605,2.09414 7.2639,2.48577 16.7017,2.48907 10.3152,0.003 11.7056,-0.2489 17.6,-3.1961 5.75852,-2.87926 10.54843,-7.94046 8.98986,-9.49903 -0.30433,-0.30432 -6.05154,-1.06846 -12.77159,-1.69808 -20.66713,-1.93637 -20.01402,-1.72047 -27.15161,-8.97576 -7.94825,-8.07933 -13.34084,-18.22294 -16.95011,-31.88365 -5.45469,-20.64539 -17.3888,-44.49714 -28.19077,-56.34262 -7.06786,-7.75065 -13.20448,-17.56297 -12.79228,-20.45459 0.27742,-1.94607 0.93578,-2.29872 3.85984,-2.0675 4.67932,0.37003 12.78529,4.59415 16.67289,8.68843 2.05446,2.16369 4.16573,3.29947 6.13333,3.29947 2.65183,0 3.01299,-0.40278 3.10851,-3.46667 0.26283,-8.43101 -0.4248,-11.44649 -4.46697,-19.58912 -5.04868,-10.17014 -12.47493,-18.8906 -21.6102,-25.37631 -10.73332,-7.62028 -29.00899,-16.3819 -39.90042,-19.12883 -5.42823,-1.36907 -10.22748,-2.84718 -10.66499,-3.28468 -1.98484,-1.98486 3.64559,-3.82106 11.71668,-3.82106 14.48597,0 23.14421,2.35522 39.8748,10.84677 11.96303,6.0718 16.01787,7.6372 19.73333,7.61819 5.50114,-0.0282 12.67636,-2.79659 12.67636,-4.89095 0,-0.8075 -3.07932,-3.96658 -6.84294,-7.02016 -13.26089,-10.75916 -36.89039,-37.79454 -36.89039,-42.20767 0,-2.31773 3.75815,-2.10499 9.6,0.54345 6.31025,2.86079 9.25053,5.74439 11.8433,11.61495 3.03695,6.87628 7.50706,11.02127 16.25827,15.07572 6.58168,3.0493 9.04205,3.59451 17.88136,3.96244 6.58669,0.27417 11.08399,-0.0199 12.5844,-0.82291 2.22209,-1.18923 4.96325,-6.21147 3.94566,-7.22907 -0.26402,-0.26401 -5.67745,-1.79561 -12.02984,-3.40356 -6.3524,-1.60795 -12.50982,-3.44129 -13.68315,-4.07409 -4.34965,-2.34587 -7.05548,-6.62043 -14.71578,-23.24751 l -7.84697,-17.03227 -11.65544,-11.73333 c -6.41048,-6.45333 -16.33386,-15.73472 -22.05195,-20.62531 -7.82357,-6.69137 -10.39653,-9.52918 -10.39653,-11.46667 0,-2.97643 0.34178,-3.01112 9.6,-0.97469 3.81334,0.83879 8.49334,1.54192 10.4,1.56253 3.18072,0.0344 3.46667,-0.23792 3.46667,-3.30119 0,-2.86104 -1.70541,-4.97006 -11.92082,-14.74214 -8.34147,-7.97944 -11.72754,-11.90715 -11.27711,-13.08098 0.4372,-1.13933 2.72174,-1.9187 7.12083,-2.42927 7.55803,-0.8772 8.02775,-1.97611 3.65946,-8.56134 -10.72982,-16.17527 -13.52307,-18.1474 -29.95405,-21.14856 -12.46828,-2.27735 -15.22831,-3.33593 -15.22831,-5.84066 0,-2.91207 2.80167,-4.97727 11.2,-8.25587 11.98011,-4.67688 16.86318,-10.79101 16.72313,-20.93909 -0.13028,-9.439571 -5.06472,-9.658125 -17.3484,-0.768385 l -8.97473,6.495045 -24.53333,-0.61949 c -35.39707,-0.89382 -42.13334,-1.52776 -42.13334,-3.965099 0,-3.047989 4.11087,-4.938027 12.48887,-5.741954 12.00945,-1.152389 13.33512,-5.096767 3.01122,-8.959438 -7.60267,-2.844519 -9.50211,-2.808505 -18.36985,0.34829 -9.94185,3.539171 -14.1969,3.904547 -14.1969,1.219074 0,-0.84069 2.63393,-4.80069 5.85316,-8.8 6.80267,-8.451048 7.33006,-11.606919 3.35427,-20.071476 -2.45053,-5.217225 -6.53969,-9.956634 -7.64066,-8.855662 -0.48634,0.486335 -1.22875,4.505251 -3.26575,17.678469 -1.21926,7.884952 -9.89438,13.889416 -30.35829,21.012438 -11.70088,4.07281 -15.15979,6.384121 -16.8622,11.26766 -0.7854,2.252999 -0.60555,3.836858 0.74123,6.527618 1.52602,3.0489 4.57712,4.96471 21.51157,13.50729 10.85333,5.47497 25.70798,12.00146 33.01033,14.50332 7.30234,2.50186 13.73874,5.28086 14.30309,6.17553 1.09134,1.73013 0.65954,3.20162 -2.0128,6.85936 -1.48612,2.03412 -1.49093,2.44795 -0.0453,3.89359 0.88966,0.88966 5.95116,3.41381 11.24778,5.60923 5.29663,2.19541 9.63023,4.3766 9.63023,4.84705 0,0.47047 1.64853,2.65486 3.6634,4.85422 3.69809,4.03668 4.49396,5.34284 7.38486,12.11989 5.79222,13.57858 7.58002,16.84539 10.61007,19.38758 3.25607,2.73182 3.38728,3.14356 3.05916,9.6 -0.42539,8.3705 1.81328,12.18037 10.75798,18.30833 6.79795,4.65723 7.93125,7.96581 3.85826,11.26392 -2.25999,1.83003 -2.26573,1.98078 -2.07126,54.35873 l 0.195,52.52362 -3.4771,19.68302 c -3.86731,21.89192 -3.84096,22.94237 1.2697,50.60814 2.41048,13.04869 2.40509,25.74768 -0.0257,60.8 -0.54924,7.92 -1.0194,26.19098 -1.04481,40.60218 l -0.0462,26.20219 7.76216,3.83809 c 4.2692,2.11096 12.02518,5.29752 17.2355,7.08126 10.58033,3.62214 15.37489,6.98295 20.869,14.62837 3.44313,4.79134 3.72846,5.77766 3.67069,12.68822 -0.0474,5.66068 -0.72196,8.92765 -2.7588,13.35969 -2.72223,5.9234 -11.27406,15.42105 -14.93021,16.58147 -1.08992,0.34592 -1.98168,1.37604 -1.98168,2.28916 0,1.36059 1.06065,1.57225 5.87717,1.17282 10.21835,-0.84738 16.06664,-7.32807 21.45658,-23.77679 5.19535,-15.8549 3.23275,-38.08723 -4.22543,-47.86538 -1.48227,-1.94337 -7.40803,-6.69892 -13.16835,-10.56789 -9.68367,-6.50412 -11.2227,-7.17132 -20.41293,-8.84948 -8.13233,-1.48498 -10.2386,-2.27129 -11.58394,-4.32455 -0.90438,-1.38026 -1.34091,-3.30026 -0.97006,-4.26667 0.57796,-1.50614 1.92782,-1.67036 9.45061,-1.1497 29.47223,2.03982 50.35529,17.27919 55.30495,40.35865 1.6109,7.51139 0.66447,31.03792 -1.47498,36.66502 -6.82262,17.94468 -11.57044,32.46438 -12.46497,38.12022 -2.13935,13.52652 1.81988,26.56732 11.22557,36.97447 7.56268,8.36791 18.58578,12.78933 18.58578,7.45487 z M 284.5177,662.00042 c 1.16309,-3.03096 0.68537,-8.48993 -1.48587,-16.97943 -1.17334,-4.58769 -2.1485,-10.54447 -2.16705,-13.23729 -0.032,-4.64205 -0.28099,-5.04609 -4.8,-7.78833 l -4.76629,-2.8923 V 607.1424 c 0,-10.64254 -0.40091,-14.73597 -1.6868,-17.22259 -2.12492,-4.10914 -1.47059,-6.77316 3.93828,-16.03444 3.41722,-5.85108 4.75228,-7.26438 6.86224,-7.26438 3.04076,0 3.2795,1.20129 0.9464,4.76204 -0.92027,1.4045 -1.52027,4.11099 -1.33333,6.0144 l 0.33988,3.46075 5.13154,-4.45193 c 8.64916,-7.50368 10.68065,-5.35524 4.69813,4.9686 -6.06867,10.47249 -9.29634,18.79941 -9.29634,23.98324 0,8.85485 3.6802,7.6795 7.33436,-2.34238 1.25088,-3.43066 4.1728,-8.39434 6.49315,-11.03041 4.07873,-4.63367 4.38855,-4.77718 9.32899,-4.32119 4.7924,0.44232 5.35443,0.21728 9.03822,-3.61906 5.48333,-5.71041 9.51822,-14.30527 10.18913,-21.70422 0.4761,-5.2504 0.0684,-7.38824 -2.67427,-14.02395 -1.7798,-4.30607 -4.22719,-11.07004 -5.43864,-15.03103 -1.21146,-3.96101 -4.15935,-10.44101 -6.55088,-14.4 -2.5577,-4.2341 -5.89444,-12.24939 -8.10313,-19.46486 -7.01062,-22.90265 -8.20463,-24.62023 -38.95569,-56.03818 -14.39229,-14.70442 -19.44327,-20.70823 -26.4728,-31.46667 -14.9338,-22.85565 -30.63616,-56.97552 -49.80662,-108.22554 -7.34642,-19.6398 -8.81319,-28.26961 -4.80485,-28.26961 1.47149,0 3.38419,3.00008 7.48058,11.73334 5.12257,10.921 6.67852,13.03537 8.00871,10.88306 0.28903,-0.46765 2.02887,-9.94765 3.86632,-21.06667 3.96845,-24.01439 9.09678,-48.87541 15.06182,-73.01639 7.41719,-30.01796 5.43713,-44.82258 -3.78846,-28.3257 -7.34099,13.12693 -11.71858,16.59236 -20.95972,16.59236 -6.549,0 -17.70108,-5.45732 -29.88977,-14.62668 -4.12341,-3.10199 -7.70547,-5.63998 -7.96012,-5.63998 -1.21732,0 -0.19808,8.93251 2.29788,20.13823 3.11369,13.979 10.60659,37.25515 15.38655,47.79713 6.18386,13.63822 2.54723,19.91086 -4.84439,8.35588 -4.7894,-7.48704 -5.05323,-8.20687 -11.15076,-30.42458 -7.28599,-26.54815 -17.86761,-60.20942 -21.32768,-67.8456 -3.86562,-8.53126 -13.50866,-23.51267 -15.66756,-24.34112 -1.92799,-0.73984 -1.84589,-0.12911 1.78159,13.25339 3.58569,13.22834 4.60765,26.30849 3.91413,50.09748 -0.74644,25.60415 -2.24322,34.8368 -7.71179,47.56897 -5.59585,13.02849 -8.52251,17.95327 -13.01124,21.89444 -9.66217,8.48349 -21.52128,10.03403 -37.75065,4.93576 -9.66162,-3.03509 -12.64574,-3.50333 -12.64574,-1.98424 0,2.29444 13.92058,15.74283 22.24291,21.48842 12.65815,8.73897 15.76677,11.63507 26.33272,24.5325 6.64465,8.11086 10.74039,14.43625 14.84952,22.93334 6.4723,13.38376 12.22188,28.5197 15.04513,39.60675 l 1.93702,7.60676 -4.95527,12.12657 c -2.7254,6.66962 -5.03391,12.84658 -5.13002,13.72658 -0.43351,3.9688 0.16827,5.33334 2.35209,5.33334 3.8513,0 8.71043,-3.80209 16.44346,-12.86636 l 7.41577,-8.69241 9.76295,0.42414 c 8.2267,0.35741 10.73967,0.92366 15.97006,3.59858 5.74566,2.93845 6.27605,3.52302 7.13436,7.86324 0.5286,2.67292 2.68007,7.02132 5.00421,10.11413 2.24231,2.98394 7.2855,11.42534 11.20709,18.75868 13.90483,26.00196 24.71292,42.90696 35.80319,56 12.18037,14.37999 14.31604,18.33686 15.25658,28.26666 0.36118,3.81334 1.84539,19.65334 3.29824,35.2 2.94663,31.5316 5.31204,46.8095 10.65198,68.8 7.36848,30.34425 14.30591,47.46667 19.23191,47.46667 1.34816,0 2.74255,-0.75925 3.09864,-1.68724 z M 165.7709,366.15499 c -1.23624,-0.78231 -0.6688,-2.07982 2.9751,-6.803 5.45593,-7.0719 6.6611,-10.73534 6.73219,-20.46433 0.0641,-8.76493 -2.82508,-19.0658 -11.47164,-40.90068 -3.17245,-8.0113 -5.76958,-15.19937 -5.77141,-15.97351 -0.002,-0.83331 0.92612,-1.26847 2.27491,-1.06666 2.88438,0.43154 9.83965,13.05129 16.12304,29.25384 l 4.50638,11.62034 0.0128,16.53334 c 0.0175,22.53203 -2.35654,28.82985 -10.85036,28.78367 -1.65191,-0.009 -3.69087,-0.45134 -4.53105,-0.98301 z m 131.14215,248.19934 c 0.009,-0.73334 0.31503,-2.4555 0.68225,-3.82704 0.57856,-2.16086 0.32747,-2.4456 -1.88123,-2.13334 -2.00308,0.2832 -2.62048,1.10274 -2.88316,3.82704 -0.27952,2.89903 0.0261,3.46667 1.86667,3.46667 1.2105,0 2.20746,-0.6 2.21547,-1.33333 z m 690.82722,-11.9283 c -0.35282,-0.91944 -1.37655,-1.6717 -2.27497,-1.6717 -1.9421,0 -2.01136,0.50083 -0.46799,3.38464 1.359,2.5393 3.79173,1.0201 2.74296,-1.71294 z M 722.91029,590.72645 c 0.94685,-1.99532 1.72154,-4.14426 1.72154,-4.77541 0,-2.09014 -5.10665,-4.5504 -8.72452,-4.20326 -2.76289,0.26511 -3.61892,0.88144 -3.89109,2.80155 -0.57554,4.06031 3.98465,9.28799 8.49407,9.73738 0.37315,0.0372 1.45315,-1.56493 2.4,-3.56026 z m -4.67846,-27.14013 c 0,-3.70188 -7.3616,-8.22771 -14.4,-8.85296 -3.9111,-0.34745 -4.29339,-0.14919 -4.58727,2.37894 -0.40041,3.44463 1.66525,5.21409 8.11345,6.95004 7.53307,2.02802 10.87382,1.88177 10.87382,-0.47602 z M 173.99961,408.91913 c 0.30569,-0.91801 -0.2072,-1.3024 -1.42322,-1.06667 -1.04561,0.20269 -2.11617,1.01438 -2.37902,1.80373 -0.30568,0.91801 0.2072,1.3024 1.42322,1.06667 1.04562,-0.20269 2.11618,-1.01438 2.37902,-1.80373 z m 211.93137,-82.85147 c 11.08222,-3.21151 25.80332,-9.75904 26.59805,-11.83009 0.77178,-2.01121 -6.11778,-2.02732 -7.7852,-0.0182 -0.66874,0.80578 -3.71262,1.79626 -6.7642,2.20107 -5.06454,0.67183 -11.82146,4.17557 -20.5478,10.65488 -2.92112,2.16891 -2.14508,2.07691 8.49915,-1.00766 z M 218.47131,309.82099 c 6.02714,-17.08579 12.0772,-26.79895 31.33603,-50.30894 9.75043,-11.90272 12.95782,-17.16041 12.95782,-21.241 0,-2.13713 -0.40077,-2.45976 -2.4,-1.9321 -1.32,0.34838 -5.56906,1.4524 -9.44235,2.45337 l -7.04233,1.81996 -10.38223,-3.06597 c -7.69446,-2.27224 -10.84186,-2.77907 -12.15767,-1.95774 -1.90159,1.18697 -3.28456,6.08379 -9.29141,32.89909 -3.18256,14.2073 -3.82618,19.15799 -3.84157,29.54915 -0.0232,15.7034 1.16562,20.05085 5.48318,20.05085 1.36354,0 2.64783,-2.22082 4.78053,-8.26667 z m 127.73893,2.2048 c 5.20177,-2.05013 12.55492,-6.6314 12.55492,-7.82213 0,-2.03526 -5.28115,-1.76074 -12.99287,0.6754 -6.7816,2.14231 -8.64039,3.19192 -9.45719,5.34026 -0.55913,1.47063 -1.01661,2.88263 -1.01661,3.13778 0,1.12926 6.76184,0.30427 10.91175,-1.33131 z M 1007.8868,251.1461 c 2.5131,-11.32277 10.4548,-31.43718 15.5034,-39.26614 4.6016,-7.13591 4.8692,-7.92563 2.6855,-7.92563 -6.7923,0 -21.9423,34.04982 -23.6229,53.09267 l -0.6331,7.17399 2.1171,-2.40822 c 1.1643,-1.32451 2.9418,-6.12451 3.95,-10.66667 z m -660.85497,8.80823 c 0,-0.88 -0.66123,-1.6 -1.4694,-1.6 -0.80816,0 -2.06693,0.72 -2.79727,1.6 -1.12293,1.35304 -0.89613,1.6 1.4694,1.6 1.77535,0 2.79727,-0.58453 2.79727,-1.6 z m 154.13541,-135.31019 5.27699,-4.64352 -5.14689,-5.72458 c -2.83079,-3.14853 -8.70926,-10.53895 -13.06325,-16.423157 -11.2184,-15.161101 -12.55078,-16.565229 -15.71869,-16.565229 -1.99909,0 -3.22598,0.89701 -4.44128,3.247138 -1.55776,3.012371 -1.51687,3.838697 0.56556,11.429213 2.9301,10.680315 7.4143,18.932205 14.6075,26.880955 7.48084,8.26659 10.25394,8.54501 17.92006,1.79918 z"
       id="path316"
       transform="translate(-13.16516,-23.687654)" />
  </g>
</svg>
